<svg width="22" height="24" viewBox="0 0 22 24" fill="none" xmlns="http://www.w3.org/2000/svg">
<path d="M14.2295 11.3906C14.2295 11.7656 14.1045 12.0938 13.8545 12.375C13.6357 12.625 13.3545 12.75 13.0107 12.75C12.667 12.75 12.3701 12.625 12.1201 12.375C11.9013 12.0938 11.792 11.7656 11.792 11.3906C11.792 11.0156 11.9013 10.7031 12.1201 10.4531C12.3701 10.2031 12.667 10.0781 13.0107 10.0781C13.3545 10.0781 13.6357 10.2031 13.8545 10.4531C14.1045 10.7031 14.2295 11.0156 14.2295 11.3906ZM8.65133 10.0781C8.30758 10.0781 8.01071 10.2031 7.76071 10.4531C7.54196 10.7031 7.43258 11.0156 7.43258 11.3906C7.43258 11.7656 7.54196 12.0938 7.76071 12.375C8.01071 12.625 8.30758 12.75 8.65133 12.75C8.99508 12.75 9.27633 12.625 9.49508 12.375C9.74508 12.0938 9.87008 11.7656 9.87008 11.3906C9.87008 11.0156 9.74508 10.7031 9.49508 10.4531C9.27633 10.2031 8.99508 10.0781 8.65133 10.0781ZM21.3076 2.48438V24L20.1357 22.9688C19.167 22.0938 17.9951 21.0312 16.6201 19.7812L15.7295 18.9375L16.3857 21.1875H2.74508C2.08883 21.1875 1.51071 20.9531 1.01071 20.4844C0.541956 19.9844 0.307581 19.3906 0.307581 18.7031V2.48438C0.307581 1.79687 0.541956 1.21875 1.01071 0.75C1.51071 0.25 2.08883 0 2.74508 0H18.8701C19.5263 0 20.0888 0.25 20.5576 0.75C21.0576 1.21875 21.3076 1.79687 21.3076 2.48438ZM17.8857 13.8281C17.8857 12.2344 17.6045 10.5938 17.042 8.90625C16.7295 8.0625 16.4326 7.375 16.1513 6.84375C15.4326 6.3125 14.6513 5.9375 13.8076 5.71875C13.4013 5.625 13.0576 5.57812 12.7763 5.57812L12.6357 5.76562C13.4795 6.04688 14.2295 6.39062 14.8857 6.79688C15.1982 6.98438 15.4326 7.15625 15.5888 7.3125C14.2138 6.53125 12.7295 6.125 11.1357 6.09375C9.54196 6.0625 8.04196 6.34375 6.63571 6.9375L5.93258 7.3125L6.26071 7.03125C6.57321 6.8125 6.91696 6.60938 7.29196 6.42188C7.85446 6.14062 8.44821 5.90625 9.07321 5.71875L8.97946 5.57812L8.46383 5.625C8.05758 5.6875 7.65133 5.79688 7.24508 5.95312C6.65133 6.17188 6.10446 6.46875 5.60446 6.84375L5.13571 7.82812C4.79196 8.60938 4.52633 9.4375 4.33883 10.3125C4.02633 11.5312 3.87008 12.7031 3.87008 13.8281L4.05758 14.1094C4.24508 14.3281 4.46383 14.5312 4.71383 14.7188C5.05758 15 5.43258 15.2031 5.83883 15.3281C6.37008 15.5469 6.93258 15.6562 7.52633 15.6562L8.32321 14.6719C7.88571 14.5469 7.47946 14.3594 7.10446 14.1094C6.85446 13.9219 6.63571 13.7344 6.44821 13.5469L6.21383 13.2656L6.72946 13.5469C7.79196 14.1406 8.96383 14.5 10.2451 14.625C11.6513 14.7188 12.9795 14.5 14.2295 13.9688C14.6982 13.8125 15.1513 13.5781 15.5888 13.2656L15.4013 13.5469C15.1826 13.7656 14.9482 13.9531 14.6982 14.1094C14.3232 14.3594 13.9013 14.5625 13.4326 14.7188L14.2295 15.6562C14.8232 15.6562 15.3857 15.5469 15.917 15.3281C16.3232 15.2031 16.6982 15 17.042 14.7188C17.292 14.5312 17.5107 14.3281 17.6982 14.1094L17.8857 13.8281Z" fill="black"/>
</svg>
