<svg width="49" height="48" viewBox="0 0 49 48" fill="none" xmlns="http://www.w3.org/2000/svg">
<path d="M46.1927 19.7392C46.0775 19.4919 46.3023 16.4755 45.6618 13.9528C45.5347 13.452 45.302 12.983 45.0071 12.5548C44.2729 11.4887 42.8147 9.26376 42.9405 8.58301" stroke="black" stroke-miterlimit="10" stroke-linecap="round" stroke-linejoin="round"/>
<path d="M4.00586 13.3884C4.00586 13.3884 4.94871 13.9798 6.3293 11.8114C7.7099 9.64311 7.30583 8.03329 8.34969 7.77046C9.39356 7.50764 9.62927 7.50764 9.93233 6.65344C10.2354 5.79925 11.1446 4.71509 12.6262 4.78079C14.1078 4.8465 14.8486 4.51796 14.8149 3.86089C14.7813 3.20382 14.916 3.13812 15.7578 3.30238C16.5996 3.46665 17.6098 1.594 18.2833 1.79112C18.9567 1.98824 19.8659 2.97385 21.1118 2.61246C22.3577 2.25107 24.2434 0.575541 26.3648 1.1012C28.4862 1.62686 27.8801 2.05395 29.0923 1.95539C30.3046 1.85683 33.4362 2.11966 33.4025 2.87529C33.3688 3.63092 33.8066 3.66377 34.0423 3.89375C34.278 4.12372 34.0423 4.45823 34.0423 4.45823C34.0423 4.45823 36.0991 5.41025 37.8404 4.66838" stroke="black" stroke-miterlimit="10" stroke-linecap="round" stroke-linejoin="round"/>
<path d="M1.82983 28.7642C1.82983 28.7642 3.46829 30.2129 3.6731 31.187C3.8779 32.1611 3.31468 33.2102 3.49389 34.0594C3.6731 34.9087 4.03151 34.9586 5.36275 35.2084C6.694 35.4582 6.7708 37.2566 7.00121 38.7553C7.23161 40.2539 9.6893 42.3271 10.7389 42.9515C11.7886 43.576 12.7102 43.2013 13.7598 43.2512C14.8095 43.3012 16.7295 45.1995 17.728 45.6313C18.7264 46.063 24.5122 45.799 25.101 45.9488C25.6898 46.0987 25.5362 46.3735 25.613 46.7231C25.6898 47.0728 30.81 46.2985 31.7572 46.0487C32.7045 45.799 32.5509 45.5492 32.5509 45.0746C32.5509 44.6 33.0373 44.4502 33.0373 44.4502C33.0373 44.4502 32.0277 43.2629 29.9933 43.5657" stroke="black" stroke-miterlimit="10" stroke-linecap="round" stroke-linejoin="round"/>
<path d="M1.82983 24.7553C1.82983 24.7553 3.0673 21.0219 2.15507 18.1899" stroke="black" stroke-miterlimit="10" stroke-linecap="round" stroke-linejoin="round"/>
<path d="M11.1793 34.3327C13.1507 34.0631 14.4354 31.6632 14.0488 28.9724C13.6622 26.2816 11.7507 24.3189 9.77939 24.5885C7.80805 24.8581 6.52335 27.258 6.90994 29.9488C7.29653 32.6396 9.20801 34.6023 11.1793 34.3327Z" stroke="black" stroke-miterlimit="10" stroke-linecap="round" stroke-linejoin="round"/>
<path d="M12.1144 32.7215C13.4343 32.541 14.2944 30.9342 14.0355 29.1327C13.7767 27.3312 12.497 26.0171 11.1771 26.1976C9.85729 26.3781 8.99718 27.9848 9.25601 29.7864C9.51484 31.5879 10.7946 32.902 12.1144 32.7215Z" stroke="black" stroke-miterlimit="10" stroke-linecap="round" stroke-linejoin="round"/>
<path d="M10.207 24.5655C10.207 24.5655 12.3838 24.3165 11.9636 22.2397" stroke="black" stroke-miterlimit="10" stroke-linecap="round" stroke-linejoin="round"/>
<path d="M10.6846 34.3525C10.6846 34.3525 12.1672 35.2398 12.0178 36.6936" stroke="black" stroke-miterlimit="10" stroke-linecap="round" stroke-linejoin="round"/>
<path d="M33.4265 17.6804C34.0512 16.9524 35.1965 16.6793 36.0682 17.1014C36.3881 17.2563 36.6603 17.4889 36.9286 17.7188C37.3642 18.0923 37.7998 18.4657 38.2354 18.8391C38.4877 19.0554 38.7427 19.2747 38.9329 19.5447C39.2606 20.0099 39.3709 20.602 39.298 21.1619C39.1472 22.3184 38.202 23.3198 37.0481 23.6224C35.8941 23.925 34.596 23.5454 33.7544 22.7178C33.3337 22.304 33.0084 21.7047 33.1916 21.1499C33.3516 20.6655 32.9367 19.9708 32.8893 19.4426C32.8331 18.8176 33.0103 18.1655 33.4265 17.6804Z" stroke="black" stroke-miterlimit="10" stroke-linecap="round" stroke-linejoin="round"/>
<path d="M38.9335 19.544C38.7433 19.274 38.4882 19.0547 38.2359 18.8384C37.8003 18.465 37.3647 18.0915 36.9291 17.7181C36.6609 17.4881 36.3886 17.2555 36.0688 17.1006C35.714 16.9288 35.3144 16.8775 34.9225 16.9198C34.5978 17.3825 34.4612 17.9603 34.5113 18.5174C34.5587 19.0455 34.9736 19.7403 34.8136 20.2247C34.6304 20.7795 34.9557 21.3787 35.3764 21.7925C36.1866 22.5892 37.4187 22.9642 38.5391 22.7217C38.9439 22.2871 39.2225 21.7442 39.2985 21.1611C39.3715 20.6012 39.2611 20.0091 38.9335 19.544Z" stroke="black" stroke-miterlimit="10" stroke-linecap="round" stroke-linejoin="round"/>
<path d="M20.8205 11.8196C20.2015 11.8297 19.5593 12.0254 19.1444 12.4736C18.6863 12.9684 18.5729 13.6806 18.2036 14.2416C18.0598 14.46 17.8743 14.6613 17.8062 14.9122C17.7347 15.1756 17.8036 15.4546 17.887 15.7148C18.0427 16.2006 18.2551 16.6798 18.6014 17.0606C18.9477 17.4413 19.4447 17.7145 19.9664 17.7068C20.6077 17.6973 21.1611 17.285 21.7723 17.0957C22.1326 16.9842 22.5221 16.9476 22.8516 16.767C23.3299 16.5049 23.6014 15.9737 23.6769 15.4436C23.7524 14.9135 23.6599 14.3759 23.5677 13.8483C23.3106 12.3778 22.3026 11.7953 20.8205 11.8196Z" stroke="black" stroke-miterlimit="10" stroke-linecap="round" stroke-linejoin="round"/>
<path d="M20.6409 13.6226C20.1829 14.1174 20.0694 14.8295 19.7001 15.3906C19.5564 15.609 19.3709 15.8103 19.3028 16.0612C19.2313 16.3246 19.3002 16.6036 19.3836 16.8637C19.4747 17.1482 19.5897 17.4278 19.7352 17.6892C19.8116 17.7 19.8886 17.707 19.9665 17.7058C20.6077 17.6964 21.1611 17.2841 21.7724 17.0948C22.1326 16.9832 22.5221 16.9467 22.8516 16.766C23.3299 16.5039 23.6015 15.9727 23.6769 15.4426C23.7524 14.9124 23.66 14.3748 23.5677 13.8473C23.5159 13.5508 23.4321 13.2922 23.3216 13.0657C23.0181 12.9938 22.6821 12.9625 22.317 12.9685C21.6981 12.9786 21.0558 13.1743 20.6409 13.6226Z" stroke="black" stroke-miterlimit="10" stroke-linecap="round" stroke-linejoin="round"/>
<path d="M31.5217 32.2989C30.9615 32.2958 30.3347 32.4901 30.0945 32.9839C29.935 33.3118 29.983 33.7027 30.1088 34.0443C30.3229 34.6257 30.757 35.1273 31.3088 35.4306C31.8605 35.7339 32.5252 35.8364 33.1458 35.7138C33.344 35.6746 33.5392 35.6127 33.7133 35.5124C34.1546 35.2579 34.4264 34.7475 34.386 34.249C34.2846 32.9958 32.641 32.3051 31.5217 32.2989Z" stroke="black" stroke-miterlimit="10" stroke-linecap="round" stroke-linejoin="round"/>
<path d="M31.5219 32.2989C31.3758 32.2981 31.2255 32.3115 31.0784 32.3394C31.0776 32.5412 31.1183 32.7465 31.1885 32.9372C31.4026 33.5186 31.8368 34.0202 32.3885 34.3235C32.9402 34.6267 33.6049 34.7292 34.2256 34.6066C34.2737 34.5971 34.3202 34.5813 34.3677 34.5688C34.3865 34.4633 34.3949 34.356 34.3862 34.2489C34.2848 32.9958 32.6412 32.305 31.5219 32.2989Z" stroke="black" stroke-miterlimit="10" stroke-linecap="round" stroke-linejoin="round"/>
<path d="M23.8652 25.1979C23.2669 25.3997 22.685 25.8037 22.5211 26.4003C22.405 26.8228 22.5232 27.2903 22.7921 27.6404C23.0694 28.0015 23.5032 28.2443 23.9628 28.2955C24.1911 28.3209 24.422 28.3011 24.6509 28.2812C25.0106 28.25 25.3702 28.2188 25.7299 28.1876C25.9555 28.1681 26.1838 28.1479 26.3977 28.0754C27.0529 27.8533 27.461 27.0957 27.2769 26.4433C26.8627 24.9759 25.1329 24.7704 23.8652 25.1979Z" stroke="black" stroke-miterlimit="10" stroke-linecap="round" stroke-linejoin="round"/>
<path d="M25.08 25.0025C24.6654 25.0002 24.2447 25.0698 23.8652 25.1978C23.2669 25.3996 22.685 25.8037 22.5211 26.4002C22.405 26.8228 22.5232 27.2904 22.792 27.6405C22.795 27.6444 22.7992 27.6473 22.8022 27.6512C22.8399 27.6481 22.8778 27.6465 22.9155 27.6432C23.2752 27.612 23.6348 27.5808 23.9945 27.5496C24.2201 27.5301 24.4484 27.5099 24.6623 27.4374C25.3175 27.2153 25.7256 26.4576 25.5415 25.8052C25.4483 25.4751 25.2861 25.212 25.08 25.0025Z" stroke="black" stroke-miterlimit="10" stroke-linecap="round" stroke-linejoin="round"/>
<path d="M23.613 5.98383C23.492 6.1238 23.4124 6.30464 23.4252 6.48729C23.4449 6.76862 23.6776 6.99832 23.9384 7.11981C24.1992 7.2413 24.4909 7.27963 24.7713 7.34803C25.087 7.42505 25.3924 7.5418 25.6777 7.69446C25.9587 7.84481 26.2216 8.03045 26.5199 8.14465C26.8182 8.25884 27.1706 8.29297 27.4496 8.139C28.4125 7.60744 27.6364 6.20664 26.8652 5.92799C26.0193 5.62238 24.2961 5.19337 23.613 5.98383Z" stroke="black" stroke-miterlimit="10" stroke-linecap="round" stroke-linejoin="round"/>
<path d="M45.4141 30.3232C45.7981 31.0976 46.4264 32.5357 46.3496 33.0103C46.2728 33.4849 44.9928 36.1075 44.3527 36.1575C43.7127 36.2074 43.1239 36.3074 43.1495 36.657C43.1751 37.0067 43.8151 36.757 43.7895 37.0317C43.7639 37.3065 43.7639 37.7561 42.8679 37.881C41.9719 38.0058 42.3815 38.4804 41.8951 39.1798C41.4086 39.8792 40.999 39.2298 40.1286 39.5045C39.2582 39.7793 38.7718 40.7284 38.951 41.203C39.1302 41.6776 39.2582 41.9024 39.2582 41.9024C39.2582 41.9024 37.8757 43.5509 37.4661 43.476C37.0565 43.401 36.0069 42.9514 35.4692 43.1263" stroke="black" stroke-miterlimit="10" stroke-linecap="round" stroke-linejoin="round"/>
<path d="M45.974 29.6726C45.6288 30.0842 45.1682 30.4267 44.6706 30.4557C44.363 30.4737 44.0512 30.4463 43.7631 30.3397C42.5884 29.9052 42.4972 28.6693 42.7722 27.6761C42.988 26.8964 43.3882 26.1648 43.5064 25.3655C43.6425 24.4442 43.3931 23.5089 43.4353 22.5791C43.4741 21.7242 43.7829 20.8558 44.4169 20.2645C44.6999 20.0006 45.209 19.7956 45.7398 19.747C46.6572 19.6631 47.4569 20.3667 47.5301 21.2629C47.648 22.7084 47.8962 27.3809 45.974 29.6726Z" stroke="black" stroke-miterlimit="10" stroke-linecap="round" stroke-linejoin="round"/>
<path d="M43.053 17.5449C43.1351 18.3334 44.206 19.2765 46.3527 19.8078" stroke="black" stroke-miterlimit="10" stroke-linecap="round" stroke-linejoin="round"/>
<path d="M47.592 22.7944C47.592 22.7944 46.6366 26.6538 45.3852 27.4962C43.6436 28.6685 43.2375 26.3578 43.2375 26.3578" stroke="black" stroke-miterlimit="10" stroke-linecap="round" stroke-linejoin="round"/>
<path d="M45.4143 30.3232C45.4143 30.3232 42.6818 30.7156 40.2358 32.528" stroke="black" stroke-miterlimit="10" stroke-linecap="round" stroke-linejoin="round"/>
<path d="M34.7212 44.4245C35.3485 44.0364 35.6574 43.4146 35.4111 43.0356C35.1648 42.6567 34.4566 42.6641 33.8292 43.0522C33.2019 43.4403 32.893 44.0621 33.1393 44.4411C33.3857 44.82 34.0939 44.8126 34.7212 44.4245Z" stroke="black" stroke-miterlimit="10" stroke-linecap="round" stroke-linejoin="round"/>
<path d="M35.4699 43.1264C35.4699 43.1264 35.3591 41.9243 36.1268 40.7769" stroke="black" stroke-miterlimit="10" stroke-linecap="round" stroke-linejoin="round"/>
<path d="M1.86545 14.94C1.50784 15.3713 1.17298 15.8421 1.04687 16.383C0.920751 16.9239 1.04397 17.5508 1.47972 17.9072C1.80696 18.1748 2.2684 18.2544 2.68799 18.1772C3.10759 18.1 3.48831 17.88 3.81208 17.6084C3.99168 17.4577 4.15768 17.2889 4.28276 17.0926C4.40583 16.8995 4.48687 16.684 4.55609 16.4669C4.65297 16.163 4.72869 15.8507 4.74697 15.533C4.77338 15.074 4.6795 14.6167 4.56722 14.1702C4.48906 13.8594 4.38052 13.5899 4.08619 13.4195C3.7829 13.2439 3.58716 13.3757 3.32058 13.5593C2.76546 13.9418 2.29145 14.4262 1.86545 14.94Z" stroke="black" stroke-miterlimit="10" stroke-linecap="round" stroke-linejoin="round"/>
<path d="M4.08632 13.4195C3.78303 13.2439 3.5873 13.3757 3.32071 13.5593C2.76558 13.9418 2.29156 14.4263 1.86556 14.94C1.50795 15.3713 1.17308 15.8422 1.04697 16.3831C1.03446 16.4368 1.02634 16.4917 1.0188 16.5467C1.06868 16.608 1.12305 16.666 1.18565 16.7172C1.51289 16.9849 1.97434 17.0645 2.39395 16.9873C2.81354 16.91 3.19426 16.6901 3.51803 16.4185C3.69763 16.2678 3.86363 16.0989 3.98872 15.9027C4.1118 15.7096 4.19284 15.494 4.26205 15.2769C4.35893 14.973 4.43466 14.6607 4.45294 14.343C4.46359 14.1578 4.45106 13.9731 4.42924 13.789C4.3537 13.6425 4.25042 13.5145 4.08632 13.4195Z" stroke="black" stroke-miterlimit="10" stroke-linecap="round" stroke-linejoin="round"/>
<path d="M1.87536 28.6964C2.35881 28.6964 2.75073 27.8141 2.75073 26.7256C2.75073 25.6372 2.35881 24.7549 1.87536 24.7549C1.39191 24.7549 1 25.6372 1 26.7256C1 27.8141 1.39191 28.6964 1.87536 28.6964Z" stroke="black" stroke-miterlimit="10" stroke-linecap="round" stroke-linejoin="round"/>
<path d="M42.9402 8.58249C43.5064 7.88044 42.8237 6.43498 41.4155 5.35397C40.0072 4.27295 38.4067 3.96574 37.8405 4.66779C37.2744 5.36984 37.957 6.8153 39.3653 7.89631C40.7735 8.97733 42.3741 9.28454 42.9402 8.58249Z" stroke="black" stroke-miterlimit="10" stroke-linecap="round" stroke-linejoin="round"/>
<path d="M41.4158 5.35406C40.0076 4.27298 38.4071 3.96578 37.8409 4.66788C37.8139 4.70133 37.7924 4.73799 37.771 4.77473C38.0592 5.32462 38.555 5.90701 39.2111 6.41068C40.6193 7.49172 42.2199 7.79897 42.786 7.09691C42.813 7.06337 42.8346 7.02675 42.856 6.98997C42.5678 6.44009 42.072 5.85777 41.4158 5.35406Z" stroke="black" stroke-miterlimit="10" stroke-linecap="round" stroke-linejoin="round"/>
</svg>
