<svg width="10" height="11" viewBox="0 0 10 11" fill="none" xmlns="http://www.w3.org/2000/svg">
<path d="M9.86328 8.90234L7.91016 6.94922C7.81901 6.85807 7.70833 6.8125 7.57812 6.8125H7.26562C7.83854 6.08333 8.125 5.25 8.125 4.3125C8.125 3.57031 7.94271 2.89323 7.57812 2.28125C7.21354 1.65625 6.71875 1.16146 6.09375 0.796875C5.48177 0.432292 4.80469 0.25 4.0625 0.25C3.32031 0.25 2.63672 0.432292 2.01172 0.796875C1.39974 1.16146 0.911458 1.65625 0.546875 2.28125C0.182292 2.89323 0 3.57031 0 4.3125C0 5.05469 0.182292 5.73828 0.546875 6.36328C0.911458 6.97526 1.39974 7.46354 2.01172 7.82812C2.63672 8.19271 3.32031 8.375 4.0625 8.375C5 8.375 5.83333 8.08854 6.5625 7.51562V7.82812C6.5625 7.95833 6.60807 8.06901 6.69922 8.16016L8.65234 10.1133C8.74349 10.2044 8.85417 10.25 8.98438 10.25C9.11458 10.25 9.22526 10.2044 9.31641 10.1133L9.86328 9.56641C9.95443 9.47526 10 9.36458 10 9.23438C10 9.10417 9.95443 8.99349 9.86328 8.90234ZM4.0625 6.8125C3.60677 6.8125 3.18359 6.70182 2.79297 6.48047C2.41536 6.25911 2.11589 5.95964 1.89453 5.58203C1.67318 5.19141 1.5625 4.76823 1.5625 4.3125C1.5625 3.85677 1.67318 3.4401 1.89453 3.0625C2.11589 2.67188 2.41536 2.36589 2.79297 2.14453C3.18359 1.92318 3.60677 1.8125 4.0625 1.8125C4.51823 1.8125 4.9349 1.92318 5.3125 2.14453C5.70312 2.36589 6.00911 2.67188 6.23047 3.0625C6.45182 3.4401 6.5625 3.85677 6.5625 4.3125C6.5625 4.76823 6.45182 5.19141 6.23047 5.58203C6.00911 5.95964 5.70312 6.25911 5.3125 6.48047C4.9349 6.70182 4.51823 6.8125 4.0625 6.8125Z" fill="black"/>
</svg>
