<svg width="24" height="18" viewBox="0 0 24 18" fill="none" xmlns="http://www.w3.org/2000/svg">
<path d="M3.13571 3.70312V13.7344C3.18258 14.0625 3.08883 14.4375 2.85446 14.7188L0.463831 17.5781V17.9531H7.21383V17.5781L4.82321 14.7188C4.54196 14.4375 4.44821 14.0625 4.49508 13.7344V5.0625L10.4013 18H11.1045L16.2138 5.0625V15.3281C16.2138 15.6094 16.2138 15.6562 16.0263 15.8438L14.1982 17.625V18H23.1045V17.625L21.3232 15.8906C21.1826 15.7969 21.0888 15.5625 21.1357 15.375V2.625C21.0888 2.4375 21.1826 2.25 21.3232 2.15625L23.1045 0.421875V0H16.8701L12.3701 11.1562L7.30758 0H0.745081V0.421875L2.85446 2.95312C3.04196 3.14062 3.18258 3.42188 3.13571 3.70312Z" fill="black"/>
</svg>
