<svg width="179" height="151" viewBox="0 0 179 151" fill="none" xmlns="http://www.w3.org/2000/svg">
<path d="M114.246 54.6776L153.849 20.923" stroke="black" stroke-miterlimit="10" stroke-linecap="round" stroke-linejoin="round"/>
<path d="M130.387 29.8414L145.197 17.2189" stroke="black" stroke-miterlimit="10" stroke-linecap="round" stroke-linejoin="round"/>
<path d="M105.405 74.8251L131.991 52.1655" stroke="black" stroke-miterlimit="10" stroke-linecap="round" stroke-linejoin="round"/>
<path d="M140.603 44.587L152.542 34.4113" stroke="black" stroke-miterlimit="10" stroke-linecap="round" stroke-linejoin="round"/>
<path d="M160.442 28.6873L172.381 18.5116" stroke="black" stroke-miterlimit="10" stroke-linecap="round" stroke-linejoin="round"/>
<path d="M166.412 10.8407L177.958 1" stroke="black" stroke-miterlimit="10" stroke-linecap="round" stroke-linejoin="round"/>
<path d="M100.642 91.7325C100.428 91.2631 100.845 85.5372 99.6576 80.7485C99.4219 79.798 98.9906 78.9077 98.4439 78.0949C97.0826 76.0711 94.3792 71.8477 94.6125 70.5555" stroke="black" stroke-miterlimit="10" stroke-linecap="round" stroke-linejoin="round"/>
<path d="M22.4305 79.6769C22.4305 79.6769 24.1785 80.7994 26.738 76.6835C29.2976 72.5676 28.5484 69.5118 30.4837 69.0129C32.419 68.514 32.856 68.514 33.4178 66.8926C33.9797 65.2712 35.6653 63.2132 38.4121 63.3379C41.1589 63.4627 42.5323 62.839 42.4699 61.5918C42.4075 60.3445 42.6572 60.2198 44.2179 60.5316C45.7786 60.8434 47.6515 57.2888 48.9 57.6629C50.1486 58.0371 51.8341 59.908 54.144 59.222C56.4538 58.536 59.9498 55.3555 63.8828 56.3533C67.8158 57.3511 66.692 58.1618 68.9395 57.9748C71.1869 57.7877 76.9927 58.2866 76.9303 59.7209C76.8678 61.1552 77.6794 61.2176 78.1164 61.6541C78.5534 62.0907 78.1164 62.7257 78.1164 62.7257C78.1164 62.7257 81.9296 64.5328 85.1579 63.1245" stroke="black" stroke-miterlimit="10" stroke-linecap="round" stroke-linejoin="round"/>
<path d="M18.3959 108.864C18.3959 108.864 21.4335 111.614 21.8132 113.463C22.1929 115.312 21.1488 117.303 21.481 118.915C21.8132 120.527 22.4777 120.622 24.9458 121.096C27.4138 121.57 27.5562 124.984 27.9834 127.829C28.4105 130.674 32.967 134.609 34.9129 135.794C36.8589 136.979 38.5676 136.268 40.5135 136.363C42.4595 136.458 46.0192 140.061 47.8702 140.881C49.7213 141.7 60.4478 141.199 61.5395 141.484C62.6311 141.768 62.3463 142.29 62.4887 142.954C62.6311 143.617 72.1237 142.147 73.8798 141.673C75.6359 141.199 75.3511 140.725 75.3511 139.824C75.3511 138.923 76.2529 138.639 76.2529 138.639C76.2529 138.639 74.3813 136.385 70.6095 136.96" stroke="black" stroke-miterlimit="10" stroke-linecap="round" stroke-linejoin="round"/>
<path d="M18.3959 101.252C18.3959 101.252 20.6901 94.1654 18.9989 88.7897" stroke="black" stroke-miterlimit="10" stroke-linecap="round" stroke-linejoin="round"/>
<path d="M35.7286 119.433C39.3834 118.922 41.7651 114.366 41.0484 109.258C40.3317 104.151 36.7878 100.425 33.1331 100.937C29.4783 101.448 27.0965 106.004 27.8133 111.112C28.53 116.219 32.0738 119.945 35.7286 119.433Z" stroke="black" stroke-miterlimit="10" stroke-linecap="round" stroke-linejoin="round"/>
<path d="M37.4629 116.377C39.9098 116.034 41.5044 112.984 41.0245 109.565C40.5447 106.145 38.1721 103.651 35.7252 103.993C33.2783 104.336 31.6837 107.386 32.1635 110.805C32.6434 114.225 35.016 116.719 37.4629 116.377Z" stroke="black" stroke-miterlimit="10" stroke-linecap="round" stroke-linejoin="round"/>
<path d="M33.927 100.893C33.927 100.893 37.9626 100.42 37.1835 96.4779" stroke="black" stroke-miterlimit="10" stroke-linecap="round" stroke-linejoin="round"/>
<path d="M34.8116 119.473C34.8116 119.473 37.5603 121.157 37.2834 123.916" stroke="black" stroke-miterlimit="10" stroke-linecap="round" stroke-linejoin="round"/>
<path d="M76.9742 87.8222C78.1324 86.4402 80.2558 85.9218 81.8719 86.7231C82.4649 87.017 82.9696 87.4586 83.4669 87.8951C84.2745 88.604 85.0821 89.3129 85.8897 90.0217C86.3575 90.4323 86.8303 90.8485 87.1829 91.3611C87.7903 92.2441 87.995 93.368 87.8597 94.4308C87.5802 96.6261 85.8278 98.5271 83.6885 99.1015C81.5491 99.6759 79.1424 98.9552 77.5822 97.3842C76.8022 96.5988 76.1992 95.4612 76.5388 94.4081C76.8353 93.4886 76.0662 92.1698 75.9783 91.1673C75.8742 89.9809 76.2026 88.743 76.9742 87.8222Z" stroke="black" stroke-miterlimit="10" stroke-linecap="round" stroke-linejoin="round"/>
<path d="M87.1831 91.361C86.8304 90.8484 86.3576 90.4322 85.8899 90.0216C85.0823 89.3128 84.2747 88.6039 83.4671 87.895C82.9698 87.4585 82.4651 87.017 81.8721 86.723C81.2143 86.3969 80.4735 86.2994 79.7469 86.3798C79.145 87.2581 78.8918 88.3548 78.9845 89.4123C79.0725 90.4148 79.8416 91.7336 79.5451 92.6531C79.2054 93.7063 79.8084 94.8438 80.5885 95.6292C82.0904 97.1415 84.3747 97.8534 86.4519 97.393C87.2024 96.5681 87.7189 95.5375 87.8598 94.4307C87.9951 93.3679 87.7905 92.2439 87.1831 91.361Z" stroke="black" stroke-miterlimit="10" stroke-linecap="round" stroke-linejoin="round"/>
<path d="M53.6037 76.6965C52.4562 76.7158 51.2655 77.0872 50.4963 77.938C49.6471 78.8773 49.4368 80.2292 48.7521 81.2941C48.4856 81.7087 48.1418 82.0908 48.0155 82.5671C47.8829 83.0672 48.0107 83.5968 48.1652 84.0905C48.4538 85.0128 48.8476 85.9224 49.4897 86.6452C50.1318 87.3679 51.0532 87.8866 52.0204 87.8719C53.2092 87.8539 54.2352 87.0713 55.3684 86.712C56.0363 86.5002 56.7584 86.4308 57.3693 86.088C58.256 85.5903 58.7595 84.5821 58.8994 83.5758C59.0393 82.5695 58.8679 81.549 58.6969 80.5476C58.2203 77.7561 56.3514 76.6504 53.6037 76.6965Z" stroke="black" stroke-miterlimit="10" stroke-linecap="round" stroke-linejoin="round"/>
<path d="M53.2707 80.1211C52.4215 81.0604 52.2112 82.4122 51.5266 83.4772C51.26 83.8917 50.9162 84.2738 50.7899 84.7501C50.6573 85.2502 50.7851 85.7797 50.9396 86.2735C51.1086 86.8135 51.3217 87.3442 51.5915 87.8405C51.7332 87.8609 51.8759 87.8742 52.0204 87.872C53.2092 87.854 54.2351 87.0714 55.3684 86.712C56.0363 86.5003 56.7584 86.4309 57.3693 86.088C58.256 85.5904 58.7594 84.5822 58.8994 83.5759C59.0393 82.5695 58.8679 81.549 58.6969 80.5476C58.6008 79.9849 58.4456 79.494 58.2406 79.064C57.678 78.9275 57.0551 78.8682 56.3781 78.8795C55.2307 78.8988 54.0399 79.2703 53.2707 80.1211Z" stroke="black" stroke-miterlimit="10" stroke-linecap="round" stroke-linejoin="round"/>
<path d="M73.4428 115.574C72.4042 115.568 71.2422 115.937 70.7969 116.874C70.5013 117.496 70.5902 118.239 70.8233 118.887C71.2203 119.991 72.0252 120.943 73.0481 121.518C74.071 122.094 75.3032 122.289 76.4539 122.056C76.8214 121.982 77.1831 121.864 77.5059 121.674C78.3241 121.191 78.828 120.222 78.7532 119.275C78.5651 116.897 75.518 115.586 73.4428 115.574Z" stroke="black" stroke-miterlimit="10" stroke-linecap="round" stroke-linejoin="round"/>
<path d="M73.4428 115.574C73.1719 115.572 72.8932 115.598 72.6205 115.651C72.619 116.034 72.6945 116.424 72.8247 116.785C73.2216 117.889 74.0265 118.841 75.0494 119.417C76.0723 119.993 77.3046 120.187 78.4553 119.954C78.5445 119.936 78.6308 119.906 78.7188 119.883C78.7536 119.682 78.7692 119.479 78.7531 119.275C78.5651 116.897 75.518 115.586 73.4428 115.574Z" stroke="black" stroke-miterlimit="10" stroke-linecap="round" stroke-linejoin="round"/>
<path d="M59.2473 102.093C58.138 102.476 57.0593 103.243 56.7554 104.375C56.5401 105.177 56.7593 106.065 57.2577 106.729C57.7718 107.415 58.5761 107.876 59.4281 107.973C59.8515 108.021 60.2795 107.984 60.7039 107.946C61.3707 107.887 62.0374 107.827 62.7042 107.768C63.1225 107.731 63.5457 107.693 63.9424 107.555C65.157 107.134 65.9136 105.695 65.5722 104.457C64.8045 101.671 61.5974 101.281 59.2473 102.093Z" stroke="black" stroke-miterlimit="10" stroke-linecap="round" stroke-linejoin="round"/>
<path d="M61.4995 101.722C60.7308 101.718 59.9507 101.85 59.2473 102.093C58.138 102.476 57.0593 103.243 56.7553 104.375C56.5401 105.177 56.7593 106.065 57.2577 106.729C57.2632 106.737 57.2709 106.742 57.2765 106.75C57.3465 106.744 57.4168 106.741 57.4866 106.735C58.1534 106.675 58.8201 106.616 59.4869 106.557C59.9052 106.52 60.3284 106.482 60.7251 106.344C61.9397 105.922 62.6963 104.484 62.3549 103.246C62.1823 102.619 61.8814 102.12 61.4995 101.722Z" stroke="black" stroke-miterlimit="10" stroke-linecap="round" stroke-linejoin="round"/>
<path d="M52.8633 123.955C52.1681 124.145 51.5044 124.524 51.0883 125.112C50.6722 125.7 50.542 126.513 50.8651 127.156C51.1248 127.674 51.6291 128.022 52.1416 128.292C52.3276 128.39 52.5232 128.483 52.7329 128.499C53.0846 128.527 53.4118 128.34 53.7365 128.202C54.3982 127.921 55.1281 127.829 55.7888 127.546C56.4494 127.262 57.0734 126.7 57.1016 125.982C57.1836 123.892 54.2796 123.567 52.8633 123.955Z" stroke="black" stroke-miterlimit="10" stroke-linecap="round" stroke-linejoin="round"/>
<path d="M80.0473 107.828C79.7374 108.007 79.5105 108.339 79.4965 108.697C79.4799 109.121 79.7701 109.526 80.1579 109.701C80.9237 110.047 82.2848 109.517 82.0826 108.517C81.9163 107.693 80.6763 107.465 80.0473 107.828Z" stroke="black" stroke-miterlimit="10" stroke-linecap="round" stroke-linejoin="round"/>
<path d="M52.1144 113.472C51.8175 113.474 51.5175 113.564 51.2845 113.748C50.7866 114.141 50.7064 114.945 51.081 115.456C51.4556 115.968 52.2047 116.145 52.7895 115.898C52.981 115.818 53.1613 115.692 53.2617 115.51C53.3511 115.348 53.3694 115.158 53.3859 114.973C53.4655 114.086 53.0904 113.466 52.1144 113.472Z" stroke="black" stroke-miterlimit="10" stroke-linecap="round" stroke-linejoin="round"/>
<path d="M66.9346 128.84C66.4919 128.975 66.1009 129.315 65.9701 129.759C65.8125 130.294 66.0681 130.903 66.5238 131.225C66.9795 131.546 67.5958 131.596 68.1255 131.42C68.4851 131.301 68.831 131.061 68.9529 130.702C69.39 129.417 68.0544 128.497 66.9346 128.84Z" stroke="black" stroke-miterlimit="10" stroke-linecap="round" stroke-linejoin="round"/>
<path d="M40.8162 129.517C40.6557 129.703 40.4975 129.906 40.4473 130.146C40.4117 130.317 40.4338 130.496 40.4837 130.663C40.6685 131.282 41.2633 131.757 41.9088 131.8C42.9088 131.867 43.981 130.774 43.5695 129.759C43.1174 128.644 41.4908 128.733 40.8162 129.517Z" stroke="black" stroke-miterlimit="10" stroke-linecap="round" stroke-linejoin="round"/>
<path d="M70.3808 78.0574C69.6406 78.6243 69.56 79.8226 70.13 80.5602C70.6999 81.2978 71.7743 81.547 72.6605 81.2565C73.8312 80.8726 74.4384 79.4266 73.7497 78.3431C73.1186 77.3504 71.2224 77.4128 70.3808 78.0574Z" stroke="black" stroke-miterlimit="10" stroke-linecap="round" stroke-linejoin="round"/>
<path d="M36.2631 82.6954C36.1018 83.4824 36.5891 84.3248 37.3158 84.6689C38.8863 85.4125 41.2075 83.9144 40.1213 82.1667C39.2234 80.7219 36.6335 80.8881 36.2631 82.6954Z" stroke="black" stroke-miterlimit="10" stroke-linecap="round" stroke-linejoin="round"/>
<path d="M58.7803 65.6226C58.5561 65.8883 58.4084 66.2315 58.4322 66.5783C58.4687 67.1123 58.9001 67.5483 59.3836 67.7789C59.8671 68.0095 60.408 68.0823 60.9278 68.2121C61.513 68.3583 62.0794 68.5799 62.6083 68.8697C63.1292 69.1551 63.6166 69.5075 64.1696 69.7242C64.7227 69.941 65.376 70.0058 65.8932 69.7135C67.6783 68.7045 66.2395 66.0455 64.8097 65.5166C63.2416 64.9365 60.0468 64.1222 58.7803 65.6226Z" stroke="black" stroke-miterlimit="10" stroke-linecap="round" stroke-linejoin="round"/>
<path d="M99.1992 111.823C99.9111 113.293 101.076 116.023 100.933 116.924C100.791 117.825 98.418 122.803 97.2314 122.898C96.0448 122.993 94.9532 123.182 95.0007 123.846C95.0481 124.51 96.2347 124.036 96.1872 124.557C96.1398 125.079 96.1398 125.932 94.4786 126.169C92.8174 126.406 93.5768 127.307 92.675 128.635C91.7732 129.962 91.0138 128.73 89.4 129.251C87.7863 129.773 86.8845 131.574 87.2168 132.475C87.549 133.376 87.7863 133.803 87.7863 133.803C87.7863 133.803 85.2233 136.932 84.4639 136.79C83.7045 136.648 81.7586 135.794 80.7618 136.126" stroke="black" stroke-miterlimit="10" stroke-linecap="round" stroke-linejoin="round"/>
<path d="M100.236 110.586C99.5955 111.367 98.7417 112.017 97.819 112.073C97.2487 112.107 96.6708 112.055 96.1366 111.852C93.9587 111.027 93.7898 108.681 94.2995 106.796C94.6996 105.316 95.4417 103.928 95.6607 102.41C95.9131 100.662 95.4506 98.8862 95.5289 97.1211C95.6008 95.4985 96.1734 93.8501 97.3487 92.7277C97.8734 92.2266 98.8172 91.8376 99.8013 91.7454C101.502 91.586 102.985 92.9217 103.12 94.6228C103.339 97.3667 103.799 106.236 100.236 110.586Z" stroke="black" stroke-miterlimit="10" stroke-linecap="round" stroke-linejoin="round"/>
<path d="M94.8211 87.5674C94.9734 89.0642 96.9587 90.8544 100.939 91.8632" stroke="black" stroke-miterlimit="10" stroke-linecap="round" stroke-linejoin="round"/>
<path d="M103.236 97.5316C103.236 97.5316 101.464 104.857 99.1443 106.456C95.9156 108.682 95.1627 104.295 95.1627 104.295" stroke="black" stroke-miterlimit="10" stroke-linecap="round" stroke-linejoin="round"/>
<path d="M99.1991 111.823C99.1991 111.823 94.1332 112.568 89.5986 116.008" stroke="black" stroke-miterlimit="10" stroke-linecap="round" stroke-linejoin="round"/>
<path d="M79.3739 138.591C80.5369 137.854 81.1096 136.674 80.6529 135.955C80.1963 135.235 78.8833 135.249 77.7202 135.986C76.5572 136.723 75.9845 137.903 76.4412 138.622C76.8978 139.342 78.2108 139.328 79.3739 138.591Z" stroke="black" stroke-miterlimit="10" stroke-linecap="round" stroke-linejoin="round"/>
<path d="M80.7618 136.126C80.7618 136.126 80.5563 133.844 81.9796 131.666" stroke="black" stroke-miterlimit="10" stroke-linecap="round" stroke-linejoin="round"/>
<path d="M18.4615 82.6223C17.7985 83.441 17.1777 84.3348 16.9439 85.3615C16.7101 86.3883 16.9385 87.5783 17.7464 88.2547C18.353 88.7627 19.2085 88.9138 19.9864 88.7673C20.7643 88.6207 21.4702 88.2031 22.0704 87.6875C22.4034 87.4016 22.7112 87.081 22.943 86.7085C23.1712 86.342 23.3215 85.9328 23.4498 85.5206C23.6294 84.9438 23.7698 84.351 23.8037 83.7479C23.8526 82.8766 23.6786 82.0086 23.4704 81.161C23.3255 80.5711 23.1243 80.0595 22.5786 79.7361C22.0163 79.4028 21.6534 79.6528 21.1592 80.0015C20.13 80.7275 19.2513 81.6471 18.4615 82.6223Z" stroke="black" stroke-miterlimit="10" stroke-linecap="round" stroke-linejoin="round"/>
<path d="M22.5786 79.7361C22.0163 79.4027 21.6535 79.6529 21.1592 80.0015C20.1301 80.7274 19.2513 81.6471 18.4615 82.6223C17.7985 83.441 17.1777 84.3348 16.9439 85.3616C16.9207 85.4634 16.9056 85.5676 16.8917 85.6721C16.9841 85.7884 17.0849 85.8986 17.201 85.9958C17.8077 86.5038 18.6632 86.655 19.4411 86.5084C20.219 86.3618 20.9248 85.9442 21.5251 85.4286C21.858 85.1426 22.1658 84.8221 22.3977 84.4496C22.6259 84.0831 22.7761 83.6739 22.9044 83.2617C23.084 82.6849 23.2244 82.0921 23.2583 81.489C23.2781 81.1374 23.2548 80.7869 23.2144 80.4375C23.0743 80.1593 22.8829 79.9164 22.5786 79.7361Z" stroke="black" stroke-miterlimit="10" stroke-linecap="round" stroke-linejoin="round"/>
<path d="M18.4799 108.734C19.3762 108.734 20.1028 107.059 20.1028 104.993C20.1028 102.927 19.3762 101.252 18.4799 101.252C17.5836 101.252 16.857 102.927 16.857 104.993C16.857 107.059 17.5836 108.734 18.4799 108.734Z" stroke="black" stroke-miterlimit="10" stroke-linecap="round" stroke-linejoin="round"/>
<path d="M94.6124 70.5555C95.662 69.2228 94.3964 66.4791 91.7856 64.4271C89.1748 62.3751 86.2074 61.7919 85.1578 63.1245C84.1082 64.4572 85.3738 67.201 87.9846 69.253C90.5954 71.305 93.5628 71.8881 94.6124 70.5555Z" stroke="black" stroke-miterlimit="10" stroke-linecap="round" stroke-linejoin="round"/>
<path d="M91.7856 64.4271C89.1748 62.375 86.2075 61.7919 85.1579 63.1246C85.1078 63.1881 85.0678 63.2577 85.0282 63.3274C85.5625 64.3712 86.4817 65.4767 87.6981 66.4327C90.3089 68.4847 93.2762 69.0679 94.3258 67.7353C94.3759 67.6716 94.4159 67.6021 94.4555 67.5323C93.9212 66.4885 93.0021 65.3832 91.7856 64.4271Z" stroke="black" stroke-miterlimit="10" stroke-linecap="round" stroke-linejoin="round"/>
<path d="M45.5728 71.172C45.9216 71.172 46.2043 70.8895 46.2043 70.5411C46.2043 70.1928 45.9216 69.9103 45.5728 69.9103C45.224 69.9103 44.9413 70.1928 44.9413 70.5411C44.9413 70.8895 45.224 71.172 45.5728 71.172Z" stroke="black" stroke-miterlimit="10" stroke-linecap="round" stroke-linejoin="round"/>
<path d="M84.7832 76.0776C85.1295 76.0776 85.4102 75.7972 85.4102 75.4513C85.4102 75.1054 85.1295 74.825 84.7832 74.825C84.4369 74.825 84.1562 75.1054 84.1562 75.4513C84.1562 75.7972 84.4369 76.0776 84.7832 76.0776Z" stroke="black" stroke-miterlimit="10" stroke-linecap="round" stroke-linejoin="round"/>
<path d="M76.253 52.1655C76.253 52.1655 105.04 51.6692 124.024 35.7055" stroke="black" stroke-miterlimit="10" stroke-linecap="round" stroke-linejoin="round"/>
<path d="M112.29 101.722C112.29 101.722 117.164 80.5078 128.395 67.4456" stroke="black" stroke-miterlimit="10" stroke-linecap="round" stroke-linejoin="round"/>
<path d="M6.39535 95.5376C6.39535 95.5376 5.65871 78.2499 20.0786 63.4953" stroke="black" stroke-miterlimit="10" stroke-linecap="round" stroke-linejoin="round"/>
<path d="M1.07975 93.2564C1.07975 93.2564 0.194361 105.363 4.32365 113.119" stroke="black" stroke-miterlimit="10" stroke-linecap="round" stroke-linejoin="round"/>
<path d="M78.7605 150C78.7605 150 90.3922 146.428 102.024 134.157" stroke="black" stroke-miterlimit="10" stroke-linecap="round" stroke-linejoin="round"/>
<path d="M105.406 140.303C105.406 140.303 110.937 136.795 116.468 125.118" stroke="black" stroke-miterlimit="10" stroke-linecap="round" stroke-linejoin="round"/>
</svg>
