<svg width="692" height="283" viewBox="0 0 692 283" fill="none" xmlns="http://www.w3.org/2000/svg">
<path d="M29 57H648V268H29V57Z" fill="#C6D17E"/>
<circle cx="336" cy="110" r="110" fill="#FFE06F"/>
<path d="M1 281.283C382.492 281.407 583.94 281.472 691 281.568" stroke="black" stroke-miterlimit="10" stroke-linecap="round" stroke-linejoin="round"/>
<path d="M307.565 119.194C300.358 109.502 285.316 87.1412 275.768 57.9567C275.116 55.9631 276.017 53.7887 277.884 52.8316C286.829 48.2477 314.166 35.1277 355.707 23.1405C357.87 22.5164 360.061 24.0441 360.218 26.288C361.19 40.1626 364.449 83.7784 368.444 105.876C368.806 107.882 367.603 109.837 365.649 110.421C357.747 112.785 337.583 118.661 318.027 123.079C314.078 123.972 309.98 122.441 307.565 119.194Z" stroke="black" stroke-miterlimit="10" stroke-linecap="round" stroke-linejoin="round"/>
<path d="M315.764 41.4352C318.337 40.4538 321.028 39.4533 323.835 38.4395" stroke="black" stroke-miterlimit="10" stroke-linecap="round" stroke-linejoin="round"/>
<path d="M280.403 56.8679C282.585 55.7547 285.58 54.276 289.355 52.5225C292.59 51.0201 296.397 49.316 300.758 47.4673C304.003 46.0915 307.554 44.6356 311.403 43.123" stroke="black" stroke-miterlimit="10" stroke-linecap="round" stroke-linejoin="round"/>
<path d="M290.517 81.7841C288.893 78.4247 287.295 74.8968 285.758 71.2143C284.838 69.0087 283.939 66.7476 283.07 64.4341" stroke="black" stroke-miterlimit="10" stroke-linecap="round" stroke-linejoin="round"/>
<path d="M296.343 92.9974C294.94 90.4753 293.525 87.8172 292.12 85.0317" stroke="black" stroke-miterlimit="10" stroke-linecap="round" stroke-linejoin="round"/>
<path d="M370.76 108.631C370.76 108.631 368.763 109.264 366.617 109.984" stroke="black" stroke-miterlimit="10" stroke-linecap="round" stroke-linejoin="round"/>
<path d="M358.578 23.5542C358.578 23.5542 368.184 28.6535 376.636 40.2523C377.678 41.6822 378.27 43.3905 378.327 45.1583C378.572 52.666 379.163 75.5153 378.357 102.459C378.325 103.504 377.992 104.489 377.429 105.313" stroke="black" stroke-miterlimit="10" stroke-linecap="round" stroke-linejoin="round"/>
<path d="M306.739 116.178L353.939 104.304" stroke="black" stroke-miterlimit="10" stroke-linecap="round" stroke-linejoin="round"/>
<path d="M361.082 103.774C362.164 103.774 363.04 102.898 363.04 101.818C363.04 100.737 362.164 99.8613 361.082 99.8613C360.001 99.8613 359.125 100.737 359.125 101.818C359.125 102.898 360.001 103.774 361.082 103.774Z" stroke="black" stroke-miterlimit="10" stroke-linecap="round" stroke-linejoin="round"/>
<path d="M335.729 118.77C335.729 118.77 341.23 117.589 341.23 121.027C341.23 122.878 339.359 122.3 335.729 125.553C332.1 128.806 318.503 144.162 318.503 144.162" stroke="black" stroke-miterlimit="10" stroke-linecap="round" stroke-linejoin="round"/>
<path d="M316.348 123.331L318.169 124.095C319.081 124.478 319.632 125.409 319.522 126.391C319.015 130.932 317.719 143.577 318.503 147.894" stroke="black" stroke-miterlimit="10" stroke-linecap="round" stroke-linejoin="round"/>
<path d="M387.257 145.38L388.49 147.893H333.32L339.445 136.555C340.006 135.516 339.678 134.222 338.69 133.575L338.69 133.575C337.749 132.959 336.499 133.123 335.749 133.961L324.368 146.684C323.68 147.453 322.696 147.893 321.663 147.893H314.543C314.543 147.893 313.148 148.111 313.066 143.027C312.984 137.944 313.558 130.401 313.558 130.401C313.558 130.401 307.139 127.613 306.738 125.973C306.338 124.333 307.314 121.495 309.123 120.864" stroke="black" stroke-miterlimit="10" stroke-linecap="round" stroke-linejoin="round"/>
<path d="M371.416 119.463C372.49 119.814 373.366 120.266 373.917 120.864" stroke="black" stroke-miterlimit="10" stroke-linecap="round" stroke-linejoin="round"/>
<path d="M359.124 112.342C359.124 112.342 355.34 114.604 356.617 116.659C357.278 117.724 361.08 117.927 365.015 118.335" stroke="black" stroke-miterlimit="10" stroke-linecap="round" stroke-linejoin="round"/>
<path d="M370.76 108.63C370.76 108.63 369.576 105.1 370.501 104.303C371.426 103.506 375.508 101.929 376.487 103.071C377.467 104.213 378.228 107.621 376.814 110.24C375.399 112.859 370.882 114.925 370.773 116.883C370.665 118.84 376.918 134.503 384.88 140.604" stroke="black" stroke-miterlimit="10" stroke-linecap="round" stroke-linejoin="round"/>
<path d="M364.58 110.74C364.58 110.74 363.234 112.647 363.884 115.165C364.535 117.683 375.133 145.637 387.257 145.379C387.257 145.379 389.356 145.781 388.489 141.47C387.622 137.159 373.917 120.864 373.917 120.864" stroke="black" stroke-miterlimit="10" stroke-linecap="round" stroke-linejoin="round"/>
<path d="M333.32 147.893H311.341C309.51 147.893 307.688 148.132 305.919 148.605L304.999 148.85C299.446 150.334 294.744 154.029 291.991 159.072L291.113 160.681H400.858L400.419 159.599C398.236 154.215 393.917 149.976 388.49 147.893V147.893" stroke="black" stroke-miterlimit="10" stroke-linecap="round" stroke-linejoin="round"/>
<path d="M561.55 281.401H129.936L221.697 189.332C224.564 186.455 228.459 184.838 232.521 184.838H458.965C463.027 184.838 466.922 186.455 469.789 189.332L561.55 281.401Z" stroke="black" stroke-miterlimit="10" stroke-linecap="round" stroke-linejoin="round"/>
<path d="M374.904 281.401H317.066L324.972 184.838H366.998L374.904 281.401Z" stroke="black" stroke-miterlimit="10" stroke-linecap="round" stroke-linejoin="round"/>
<path d="M395.289 281.401H383.124L372.056 184.838H379.477L395.289 281.401Z" stroke="black" stroke-miterlimit="10" stroke-linecap="round" stroke-linejoin="round"/>
<path d="M296.302 281.401H308.467L319.535 184.838H312.114L296.302 281.401Z" stroke="black" stroke-miterlimit="10" stroke-linecap="round" stroke-linejoin="round"/>
<path d="M439.814 184.838H252.156L266.004 165.604C268.23 162.513 271.808 160.681 275.619 160.681H416.722C420.301 160.681 423.66 162.401 425.75 165.304L439.814 184.838Z" stroke="black" stroke-miterlimit="10" stroke-linecap="round" stroke-linejoin="round"/>
<path d="M366.952 167.606H324.972V184.838H366.952V167.606Z" stroke="black" stroke-miterlimit="10" stroke-linecap="round" stroke-linejoin="round"/>
<path d="M366.952 167.606H324.972V171.472H366.952V167.606Z" stroke="black" stroke-miterlimit="10" stroke-linecap="round" stroke-linejoin="round"/>
<path d="M345.962 184.838V171.473" stroke="black" stroke-miterlimit="10" stroke-linecap="round" stroke-linejoin="round"/>
<path d="M315.315 184.838V172.759" stroke="black" stroke-miterlimit="10" stroke-linecap="round" stroke-linejoin="round"/>
<path d="M317.047 172.759H313.584C313.379 172.759 313.211 172.591 313.211 172.387V165.039C313.211 164.834 313.379 164.667 313.584 164.667H317.047C317.252 164.667 317.419 164.834 317.419 165.039V172.387C317.419 172.591 317.252 172.759 317.047 172.759Z" stroke="black" stroke-miterlimit="10" stroke-linecap="round" stroke-linejoin="round"/>
<path d="M302.666 184.838V172.759" stroke="black" stroke-miterlimit="10" stroke-linecap="round" stroke-linejoin="round"/>
<path d="M304.397 172.759H300.934C300.729 172.759 300.562 172.591 300.562 172.387V165.039C300.562 164.834 300.729 164.667 300.934 164.667H304.397C304.602 164.667 304.77 164.834 304.77 165.039V172.387C304.77 172.591 304.602 172.759 304.397 172.759Z" stroke="black" stroke-miterlimit="10" stroke-linecap="round" stroke-linejoin="round"/>
<path d="M290.017 184.838V172.759" stroke="black" stroke-miterlimit="10" stroke-linecap="round" stroke-linejoin="round"/>
<path d="M291.748 172.759H288.285C288.081 172.759 287.913 172.591 287.913 172.387V165.039C287.913 164.834 288.081 164.667 288.285 164.667H291.748C291.953 164.667 292.121 164.834 292.121 165.039V172.387C292.121 172.591 291.953 172.759 291.748 172.759Z" stroke="black" stroke-miterlimit="10" stroke-linecap="round" stroke-linejoin="round"/>
<path d="M277.368 184.838V172.759" stroke="black" stroke-miterlimit="10" stroke-linecap="round" stroke-linejoin="round"/>
<path d="M279.099 172.759H275.636C275.431 172.759 275.264 172.591 275.264 172.387V165.039C275.264 164.834 275.431 164.667 275.636 164.667H279.099C279.304 164.667 279.472 164.834 279.472 165.039V172.387C279.472 172.591 279.304 172.759 279.099 172.759Z" stroke="black" stroke-miterlimit="10" stroke-linecap="round" stroke-linejoin="round"/>
<path d="M377.08 184.838V172.759" stroke="black" stroke-miterlimit="10" stroke-linecap="round" stroke-linejoin="round"/>
<path d="M378.811 172.759H375.349C375.144 172.759 374.976 172.591 374.976 172.387V165.039C374.976 164.834 375.144 164.667 375.349 164.667H378.811C379.016 164.667 379.184 164.834 379.184 165.039V172.387C379.184 172.591 379.016 172.759 378.811 172.759Z" stroke="black" stroke-miterlimit="10" stroke-linecap="round" stroke-linejoin="round"/>
<path d="M389.729 184.838V172.759" stroke="black" stroke-miterlimit="10" stroke-linecap="round" stroke-linejoin="round"/>
<path d="M391.461 172.759H387.998C387.793 172.759 387.626 172.591 387.626 172.387V165.039C387.626 164.834 387.793 164.667 387.998 164.667H391.461C391.666 164.667 391.834 164.834 391.834 165.039V172.387C391.834 172.591 391.666 172.759 391.461 172.759Z" stroke="black" stroke-miterlimit="10" stroke-linecap="round" stroke-linejoin="round"/>
<path d="M402.379 184.838V172.759" stroke="black" stroke-miterlimit="10" stroke-linecap="round" stroke-linejoin="round"/>
<path d="M404.109 172.759H400.647C400.442 172.759 400.274 172.591 400.274 172.387V165.039C400.274 164.834 400.442 164.667 400.647 164.667H404.109C404.314 164.667 404.482 164.834 404.482 165.039V172.387C404.482 172.591 404.314 172.759 404.109 172.759Z" stroke="black" stroke-miterlimit="10" stroke-linecap="round" stroke-linejoin="round"/>
<path d="M415.027 184.838V172.759" stroke="black" stroke-miterlimit="10" stroke-linecap="round" stroke-linejoin="round"/>
<path d="M416.759 172.759H413.296C413.091 172.759 412.923 172.591 412.923 172.387V165.039C412.923 164.834 413.091 164.667 413.296 164.667H416.759C416.964 164.667 417.131 164.834 417.131 165.039V172.387C417.131 172.591 416.964 172.759 416.759 172.759Z" stroke="black" stroke-miterlimit="10" stroke-linecap="round" stroke-linejoin="round"/>
<path d="M219.478 192.021H310.938" stroke="black" stroke-miterlimit="10" stroke-linecap="round" stroke-linejoin="round"/>
<path d="M204.525 206.966H308.414" stroke="black" stroke-miterlimit="10" stroke-linecap="round" stroke-linejoin="round"/>
<path d="M189.227 221.911H306.044" stroke="black" stroke-miterlimit="10" stroke-linecap="round" stroke-linejoin="round"/>
<path d="M174.515 236.855H303.597" stroke="black" stroke-miterlimit="10" stroke-linecap="round" stroke-linejoin="round"/>
<path d="M159.976 251.8H300.869" stroke="black" stroke-miterlimit="10" stroke-linecap="round" stroke-linejoin="round"/>
<path d="M145.167 266.746H298.702" stroke="black" stroke-miterlimit="10" stroke-linecap="round" stroke-linejoin="round"/>
<path d="M137.558 274.218H297.479" stroke="black" stroke-miterlimit="10" stroke-linecap="round" stroke-linejoin="round"/>
<path d="M211.569 199.493H309.714" stroke="black" stroke-miterlimit="10" stroke-linecap="round" stroke-linejoin="round"/>
<path d="M196.962 214.438H307.201" stroke="black" stroke-miterlimit="10" stroke-linecap="round" stroke-linejoin="round"/>
<path d="M182.259 229.383H304.77" stroke="black" stroke-miterlimit="10" stroke-linecap="round" stroke-linejoin="round"/>
<path d="M152.639 259.273H299.926" stroke="black" stroke-miterlimit="10" stroke-linecap="round" stroke-linejoin="round"/>
<path d="M219.478 192.021H310.938" stroke="black" stroke-miterlimit="10" stroke-linecap="round" stroke-linejoin="round"/>
<path d="M204.525 206.966H308.414" stroke="black" stroke-miterlimit="10" stroke-linecap="round" stroke-linejoin="round"/>
<path d="M189.227 221.911H306.044" stroke="black" stroke-miterlimit="10" stroke-linecap="round" stroke-linejoin="round"/>
<path d="M174.515 236.855H303.597" stroke="black" stroke-miterlimit="10" stroke-linecap="round" stroke-linejoin="round"/>
<path d="M159.976 251.8H300.869" stroke="black" stroke-miterlimit="10" stroke-linecap="round" stroke-linejoin="round"/>
<path d="M145.167 266.746H298.702" stroke="black" stroke-miterlimit="10" stroke-linecap="round" stroke-linejoin="round"/>
<path d="M137.558 274.218H297.479" stroke="black" stroke-miterlimit="10" stroke-linecap="round" stroke-linejoin="round"/>
<path d="M211.569 199.493H309.714" stroke="black" stroke-miterlimit="10" stroke-linecap="round" stroke-linejoin="round"/>
<path d="M196.962 214.438H307.201" stroke="black" stroke-miterlimit="10" stroke-linecap="round" stroke-linejoin="round"/>
<path d="M182.259 229.383H304.77" stroke="black" stroke-miterlimit="10" stroke-linecap="round" stroke-linejoin="round"/>
<path d="M167.314 244.328H302.12" stroke="black" stroke-miterlimit="10" stroke-linecap="round" stroke-linejoin="round"/>
<path d="M152.639 259.273H299.926" stroke="black" stroke-miterlimit="10" stroke-linecap="round" stroke-linejoin="round"/>
<path d="M472.266 192.021H380.805" stroke="black" stroke-miterlimit="10" stroke-linecap="round" stroke-linejoin="round"/>
<path d="M487.219 206.966H383.33" stroke="black" stroke-miterlimit="10" stroke-linecap="round" stroke-linejoin="round"/>
<path d="M502.149 221.911H385.699" stroke="black" stroke-miterlimit="10" stroke-linecap="round" stroke-linejoin="round"/>
<path d="M517.229 236.855H388.147" stroke="black" stroke-miterlimit="10" stroke-linecap="round" stroke-linejoin="round"/>
<path d="M531.767 251.8H390.874" stroke="black" stroke-miterlimit="10" stroke-linecap="round" stroke-linejoin="round"/>
<path d="M546.577 266.746H393.041" stroke="black" stroke-miterlimit="10" stroke-linecap="round" stroke-linejoin="round"/>
<path d="M554.186 274.218H394.265" stroke="black" stroke-miterlimit="10" stroke-linecap="round" stroke-linejoin="round"/>
<path d="M479.629 199.493H382.029" stroke="black" stroke-miterlimit="10" stroke-linecap="round" stroke-linejoin="round"/>
<path d="M494.782 214.438H384.543" stroke="black" stroke-miterlimit="10" stroke-linecap="round" stroke-linejoin="round"/>
<path d="M509.484 229.383H386.974" stroke="black" stroke-miterlimit="10" stroke-linecap="round" stroke-linejoin="round"/>
<path d="M524.43 244.328H389.428" stroke="black" stroke-miterlimit="10" stroke-linecap="round" stroke-linejoin="round"/>
<path d="M539.104 259.273H391.818" stroke="black" stroke-miterlimit="10" stroke-linecap="round" stroke-linejoin="round"/>
<path d="M324.972 192.021H367.586" stroke="black" stroke-miterlimit="10" stroke-linecap="round" stroke-linejoin="round"/>
<path d="M323.772 199.493H368.198" stroke="black" stroke-miterlimit="10" stroke-linecap="round" stroke-linejoin="round"/>
<path d="M323.193 206.966H368.198" stroke="black" stroke-miterlimit="10" stroke-linecap="round" stroke-linejoin="round"/>
<path d="M322.549 214.438H369.421" stroke="black" stroke-miterlimit="10" stroke-linecap="round" stroke-linejoin="round"/>
<path d="M317.654 274.218H374.316" stroke="black" stroke-miterlimit="10" stroke-linecap="round" stroke-linejoin="round"/>
<path d="M318.266 266.746H373.704" stroke="black" stroke-miterlimit="10" stroke-linecap="round" stroke-linejoin="round"/>
<path d="M318.878 259.273H373.092" stroke="black" stroke-miterlimit="10" stroke-linecap="round" stroke-linejoin="round"/>
<path d="M319.535 251.8H372.056" stroke="black" stroke-miterlimit="10" stroke-linecap="round" stroke-linejoin="round"/>
<path d="M371.869 244.328H320.102" stroke="black" stroke-miterlimit="10" stroke-linecap="round" stroke-linejoin="round"/>
<path d="M371.256 236.855H320.713" stroke="black" stroke-miterlimit="10" stroke-linecap="round" stroke-linejoin="round"/>
<path d="M321.852 229.383H370.645" stroke="black" stroke-miterlimit="10" stroke-linecap="round" stroke-linejoin="round"/>
<path d="M321.937 221.911H370.033" stroke="black" stroke-miterlimit="10" stroke-linecap="round" stroke-linejoin="round"/>
<path d="M341.23 156.382H374.976" stroke="black" stroke-miterlimit="10" stroke-linecap="round" stroke-linejoin="round"/>
<path d="M381.393 156.382H388.7" stroke="black" stroke-miterlimit="10" stroke-linecap="round" stroke-linejoin="round"/>
<path d="M339.602 144.754L344.72 134.944" stroke="black" stroke-miterlimit="10" stroke-linecap="round" stroke-linejoin="round"/>
<path d="M345.985 131.927L347.57 128.681" stroke="black" stroke-miterlimit="10" stroke-linecap="round" stroke-linejoin="round"/>
<path d="M9.95215 281.282C9.95215 281.282 25.3492 282.003 50.2467 268.898C75.1441 255.793 93.7903 246.724 118.715 252.684C139.155 257.572 153.606 246.006 165.142 246.076" stroke="black" stroke-miterlimit="10" stroke-linecap="round" stroke-linejoin="round"/>
<path d="M522.055 241.773C522.055 241.773 543.988 234.194 561.55 242.665C579.112 251.136 579.978 257.507 606.419 251.456C632.86 245.405 641.376 252.061 649.531 258.314C657.686 264.566 674.927 279.763 687.239 281.565" stroke="black" stroke-miterlimit="10" stroke-linecap="round" stroke-linejoin="round"/>
<path d="M206.355 204.725C206.355 204.725 200.723 197.669 190.622 198.506C181.539 199.258 182.911 198.11 176.98 192.578C171.049 187.046 174.515 183.4 167.688 182.786C164.222 182.475 158.197 173.611 156.22 173.042C154.243 172.472 149.696 177.168 146.137 177.76C142.578 178.353 137.042 176.97 134.077 176.773C131.111 176.575 125.575 181.712 119.841 181.514C114.108 181.317 112.428 155.338 105.531 155.338C94.7776 155.338 87.5471 199.493 87.5471 199.493C87.5471 199.493 81.4985 184.838 74.9442 184.838C64.085 184.838 52.0381 239.011 46.657 243.923C41.2759 248.836 35.4009 238.185 30.7886 239.984C26.1762 241.783 14.3159 275.339 5.61157 281.283" stroke="black" stroke-miterlimit="10" stroke-linecap="round" stroke-linejoin="round"/>
<path d="M87.5469 199.493C87.5469 199.493 98.3617 230.175 105.531 236.856" stroke="black" stroke-miterlimit="10" stroke-linecap="round" stroke-linejoin="round"/>
<path d="M148.662 176.834C148.662 176.834 131.668 187.319 125.061 188.053C118.453 188.786 111.357 206.561 111.357 206.561" stroke="black" stroke-miterlimit="10" stroke-linecap="round" stroke-linejoin="round"/>
<path d="M98.366 251.018C98.366 251.018 130.051 241.897 143.919 233.119C167.314 218.31 174.515 188.561 192.951 218.174" stroke="black" stroke-miterlimit="10" stroke-linecap="round" stroke-linejoin="round"/>
<path d="M482.617 202.202C482.617 202.202 493.466 192.068 498.656 192.021C503.846 191.973 506.813 196.5 515.447 197.55C523.812 198.568 533.155 162.99 541.092 163.295C549.03 163.6 557.273 201.806 564.906 213.364C572.538 224.922 588.618 202.662 598.013 204.795C607.409 206.928 610.094 221.51 615.895 224.56C621.696 227.611 636.692 217.849 647.031 224.56C657.369 231.272 669.205 269.526 675.825 277.122" stroke="black" stroke-miterlimit="10" stroke-linecap="round" stroke-linejoin="round"/>
<path d="M513.341 197.207C513.341 197.207 522.48 199.191 534.949 200.061C547.419 200.93 547.206 203.925 550.25 215.372" stroke="black" stroke-miterlimit="10" stroke-linecap="round" stroke-linejoin="round"/>
<path d="M617.714 225.098C617.714 225.098 608.054 225.392 600.106 223.027C592.158 220.661 587.423 226.406 581.167 233.842" stroke="black" stroke-miterlimit="10" stroke-linecap="round" stroke-linejoin="round"/>
<path d="M115.129 214.438C115.129 214.438 120.282 201.688 123.298 197.669" stroke="black" stroke-miterlimit="10" stroke-linecap="round" stroke-linejoin="round"/>
<path d="M125.811 193.969C125.811 193.969 126.439 192.599 128.953 192.2" stroke="black" stroke-miterlimit="10" stroke-linecap="round" stroke-linejoin="round"/>
<path d="M81.5903 198.96C81.5903 198.96 90.1268 221.297 93.4965 227.47" stroke="black" stroke-miterlimit="10" stroke-linecap="round" stroke-linejoin="round"/>
<path d="M95.3894 231.466C95.3894 231.466 97.388 235.047 98.366 236.344" stroke="black" stroke-miterlimit="10" stroke-linecap="round" stroke-linejoin="round"/>
<path d="M100.092 255.634C100.092 255.634 82.8878 258.036 69.8582 265.62" stroke="black" stroke-miterlimit="10" stroke-linecap="round" stroke-linejoin="round"/>
<path d="M64.7977 268.022L58.0931 271.183" stroke="black" stroke-miterlimit="10" stroke-linecap="round" stroke-linejoin="round"/>
<path d="M534.321 203.558C534.321 203.558 520.618 202.746 511.99 200.008" stroke="black" stroke-miterlimit="10" stroke-linecap="round" stroke-linejoin="round"/>
<path d="M509.185 199.222C509.185 199.222 506.689 198.215 505.681 197.447" stroke="black" stroke-miterlimit="10" stroke-linecap="round" stroke-linejoin="round"/>
<path d="M660.374 272.53L654.881 268.443" stroke="black" stroke-miterlimit="10" stroke-linecap="round" stroke-linejoin="round"/>
<path d="M651.026 265.057C651.026 265.057 643.556 257.237 633.167 254.271" stroke="black" stroke-miterlimit="10" stroke-linecap="round" stroke-linejoin="round"/>
<path d="M582.478 240.315C582.478 240.315 588.168 231.52 593.116 229.1" stroke="black" stroke-miterlimit="10" stroke-linecap="round" stroke-linejoin="round"/>
<path d="M596.305 226.867C596.305 226.867 598.971 225.932 601.216 227.101" stroke="black" stroke-miterlimit="10" stroke-linecap="round" stroke-linejoin="round"/>
</svg>
