<svg width="718" height="367" viewBox="0 0 718 367" fill="none" xmlns="http://www.w3.org/2000/svg">
<g opacity="0.1">
<path d="M532.305 167.713C519.815 150.916 493.747 112.163 477.198 61.5831C476.068 58.1281 477.63 54.3597 480.866 52.7009C496.367 44.7566 543.745 22.0185 615.74 1.24345C619.488 0.161902 623.285 2.80953 623.558 6.69847C625.242 30.7444 630.891 106.335 637.814 144.632C638.442 148.109 636.358 151.496 632.971 152.51C619.276 156.607 584.329 166.79 550.438 174.447C543.593 175.993 536.491 173.341 532.305 167.713Z" stroke="black" stroke-miterlimit="10" stroke-linecap="round" stroke-linejoin="round"/>
<path d="M546.515 32.9497C550.974 31.2489 555.639 29.5148 560.504 27.7578" stroke="black" stroke-miterlimit="10" stroke-linecap="round" stroke-linejoin="round"/>
<path d="M485.231 59.6962C489.013 57.767 494.203 55.2042 500.746 52.1653C506.352 49.5615 512.951 46.6082 520.508 43.4041C526.132 41.0197 532.287 38.4964 538.958 35.8751" stroke="black" stroke-miterlimit="10" stroke-linecap="round" stroke-linejoin="round"/>
<path d="M502.76 102.878C499.945 97.0559 497.176 90.9417 494.513 84.5596C492.917 80.7371 491.36 76.8184 489.854 72.8088" stroke="black" stroke-miterlimit="10" stroke-linecap="round" stroke-linejoin="round"/>
<path d="M512.858 122.312C510.425 117.941 507.973 113.334 505.539 108.507" stroke="black" stroke-miterlimit="10" stroke-linecap="round" stroke-linejoin="round"/>
<path d="M641.829 149.405C641.829 149.405 638.368 150.502 634.648 151.751" stroke="black" stroke-miterlimit="10" stroke-linecap="round" stroke-linejoin="round"/>
<path d="M620.715 1.96014C620.715 1.96014 637.364 10.7978 652.012 30.8996C653.817 33.3776 654.843 36.3382 654.943 39.402C655.368 52.4136 656.391 92.0135 654.994 138.71C654.94 140.521 654.361 142.227 653.387 143.656" stroke="black" stroke-miterlimit="10" stroke-linecap="round" stroke-linejoin="round"/>
<path d="M530.873 162.485L612.676 141.905" stroke="black" stroke-miterlimit="10" stroke-linecap="round" stroke-linejoin="round"/>
<path d="M625.056 140.989C626.93 140.989 628.449 139.471 628.449 137.598C628.449 135.725 626.93 134.207 625.056 134.207C623.182 134.207 621.663 135.725 621.663 137.598C621.663 139.471 623.182 140.989 625.056 140.989Z" stroke="black" stroke-miterlimit="10" stroke-linecap="round" stroke-linejoin="round"/>
<path d="M581.117 166.978C581.117 166.978 590.65 164.932 590.65 170.889C590.65 174.098 587.408 173.095 581.117 178.733C574.827 184.372 551.262 210.985 551.262 210.985" stroke="black" stroke-miterlimit="10" stroke-linecap="round" stroke-linejoin="round"/>
<path d="M547.527 174.882L550.684 176.208C552.263 176.871 553.218 178.484 553.028 180.186C552.148 188.056 549.904 209.971 551.262 217.453" stroke="black" stroke-miterlimit="10" stroke-linecap="round" stroke-linejoin="round"/>
<path d="M670.42 213.095L672.556 217.451H576.942L587.557 197.801C588.529 196.001 587.961 193.757 586.249 192.637L586.249 192.637C584.618 191.569 582.451 191.854 581.152 193.306L561.428 215.355C560.235 216.689 558.529 217.451 556.74 217.451H544.399C544.399 217.451 541.981 217.828 541.839 209.018C541.697 200.208 542.692 187.135 542.692 187.135C542.692 187.135 531.567 182.304 530.873 179.462C530.179 176.62 531.87 171.7 535.006 170.608" stroke="black" stroke-miterlimit="10" stroke-linecap="round" stroke-linejoin="round"/>
<path d="M642.966 168.179C644.826 168.788 646.345 169.571 647.301 170.608" stroke="black" stroke-miterlimit="10" stroke-linecap="round" stroke-linejoin="round"/>
<path d="M621.662 155.838C621.662 155.838 615.105 159.759 617.317 163.32C618.463 165.165 625.053 165.517 631.872 166.224" stroke="black" stroke-miterlimit="10" stroke-linecap="round" stroke-linejoin="round"/>
<path d="M641.829 149.405C641.829 149.405 639.777 143.287 641.38 141.905C642.983 140.524 650.056 137.791 651.754 139.77C653.452 141.749 654.772 147.657 652.32 152.195C649.868 156.734 642.04 160.315 641.852 163.708C641.663 167.1 652.501 194.245 666.299 204.818" stroke="black" stroke-miterlimit="10" stroke-linecap="round" stroke-linejoin="round"/>
<path d="M631.119 153.062C631.119 153.062 628.786 156.366 629.913 160.731C631.04 165.095 649.408 213.542 670.42 213.095C670.42 213.095 674.059 213.792 672.556 206.32C671.053 198.849 647.301 170.608 647.301 170.608" stroke="black" stroke-miterlimit="10" stroke-linecap="round" stroke-linejoin="round"/>
<path d="M576.942 217.451H538.85C535.677 217.451 532.518 217.865 529.454 218.684L527.859 219.11C518.234 221.681 510.085 228.084 505.314 236.825L503.792 239.613H693.991L693.231 237.738C689.447 228.407 681.961 221.061 672.556 217.451V217.451" stroke="black" stroke-miterlimit="10" stroke-linecap="round" stroke-linejoin="round"/>
<path d="M972.486 448.832H224.458L383.488 289.267C388.457 284.282 395.207 281.48 402.248 281.48H794.696C801.737 281.48 808.487 284.282 813.456 289.267L972.486 448.832Z" stroke="black" stroke-miterlimit="10" stroke-linecap="round" stroke-linejoin="round"/>
<path d="M649.01 448.832H548.772L562.473 281.48H635.308L649.01 448.832Z" stroke="black" stroke-miterlimit="10" stroke-linecap="round" stroke-linejoin="round"/>
<path d="M684.339 448.832H663.257L644.075 281.48H656.936L684.339 448.832Z" stroke="black" stroke-miterlimit="10" stroke-linecap="round" stroke-linejoin="round"/>
<path d="M512.787 448.832H533.869L553.051 281.48H540.19L512.787 448.832Z" stroke="black" stroke-miterlimit="10" stroke-linecap="round" stroke-linejoin="round"/>
<path d="M761.506 281.48H436.277L460.277 248.146C464.134 242.789 470.335 239.613 476.94 239.613H721.485C727.687 239.613 733.51 242.595 737.132 247.626L761.506 281.48Z" stroke="black" stroke-miterlimit="10" stroke-linecap="round" stroke-linejoin="round"/>
<path d="M635.229 251.617H562.474V281.48H635.229V251.617Z" stroke="black" stroke-miterlimit="10" stroke-linecap="round" stroke-linejoin="round"/>
<path d="M635.229 251.617H562.474V258.317H635.229V251.617Z" stroke="black" stroke-miterlimit="10" stroke-linecap="round" stroke-linejoin="round"/>
<path d="M598.851 281.48V258.317" stroke="black" stroke-miterlimit="10" stroke-linecap="round" stroke-linejoin="round"/>
<path d="M545.738 281.48V260.547" stroke="black" stroke-miterlimit="10" stroke-linecap="round" stroke-linejoin="round"/>
<path d="M548.738 260.547H542.737C542.382 260.547 542.091 260.256 542.091 259.901V247.167C542.091 246.812 542.382 246.522 542.737 246.522H548.738C549.093 246.522 549.384 246.812 549.384 247.167V259.901C549.384 260.256 549.093 260.547 548.738 260.547Z" stroke="black" stroke-miterlimit="10" stroke-linecap="round" stroke-linejoin="round"/>
<path d="M523.815 281.48V260.547" stroke="black" stroke-miterlimit="10" stroke-linecap="round" stroke-linejoin="round"/>
<path d="M526.816 260.547H520.814C520.459 260.547 520.169 260.256 520.169 259.901V247.167C520.169 246.812 520.459 246.522 520.814 246.522H526.816C527.171 246.522 527.462 246.812 527.462 247.167V259.901C527.462 260.256 527.171 260.547 526.816 260.547Z" stroke="black" stroke-miterlimit="10" stroke-linecap="round" stroke-linejoin="round"/>
<path d="M501.893 281.48V260.547" stroke="black" stroke-miterlimit="10" stroke-linecap="round" stroke-linejoin="round"/>
<path d="M504.894 260.547H498.893C498.537 260.547 498.247 260.256 498.247 259.901V247.167C498.247 246.812 498.537 246.522 498.893 246.522H504.894C505.249 246.522 505.54 246.812 505.54 247.167V259.901C505.54 260.256 505.249 260.547 504.894 260.547Z" stroke="black" stroke-miterlimit="10" stroke-linecap="round" stroke-linejoin="round"/>
<path d="M479.971 281.48V260.547" stroke="black" stroke-miterlimit="10" stroke-linecap="round" stroke-linejoin="round"/>
<path d="M482.972 260.547H476.97C476.615 260.547 476.324 260.256 476.324 259.901V247.167C476.324 246.812 476.615 246.522 476.97 246.522H482.972C483.327 246.522 483.617 246.812 483.617 247.167V259.901C483.617 260.256 483.327 260.547 482.972 260.547Z" stroke="black" stroke-miterlimit="10" stroke-linecap="round" stroke-linejoin="round"/>
<path d="M652.781 281.48V260.547" stroke="black" stroke-miterlimit="10" stroke-linecap="round" stroke-linejoin="round"/>
<path d="M655.782 260.547H649.781C649.426 260.547 649.135 260.256 649.135 259.901V247.167C649.135 246.812 649.426 246.522 649.781 246.522H655.782C656.138 246.522 656.428 246.812 656.428 247.167V259.901C656.428 260.256 656.138 260.547 655.782 260.547Z" stroke="black" stroke-miterlimit="10" stroke-linecap="round" stroke-linejoin="round"/>
<path d="M674.704 281.48V260.547" stroke="black" stroke-miterlimit="10" stroke-linecap="round" stroke-linejoin="round"/>
<path d="M677.705 260.547H671.704C671.349 260.547 671.058 260.256 671.058 259.901V247.167C671.058 246.812 671.349 246.522 671.704 246.522H677.705C678.06 246.522 678.351 246.812 678.351 247.167V259.901C678.351 260.256 678.06 260.547 677.705 260.547Z" stroke="black" stroke-miterlimit="10" stroke-linecap="round" stroke-linejoin="round"/>
<path d="M696.627 281.48V260.547" stroke="black" stroke-miterlimit="10" stroke-linecap="round" stroke-linejoin="round"/>
<path d="M699.627 260.547H693.625C693.27 260.547 692.98 260.256 692.98 259.901V247.167C692.98 246.812 693.27 246.522 693.625 246.522H699.627C699.982 246.522 700.272 246.812 700.272 247.167V259.901C700.272 260.256 699.982 260.547 699.627 260.547Z" stroke="black" stroke-miterlimit="10" stroke-linecap="round" stroke-linejoin="round"/>
<path d="M721.549 260.547H715.548C715.192 260.547 714.902 260.256 714.902 259.901V247.167C714.902 246.812 715.192 246.522 715.548 246.522H721.549C721.904 246.522 722.195 246.812 722.195 247.167V259.901C722.195 260.256 721.904 260.547 721.549 260.547Z" stroke="black" stroke-miterlimit="10" stroke-linecap="round" stroke-linejoin="round"/>
<path d="M379.642 293.928H538.152" stroke="black" stroke-miterlimit="10" stroke-linecap="round" stroke-linejoin="round"/>
<path d="M353.728 319.829H533.778" stroke="black" stroke-miterlimit="10" stroke-linecap="round" stroke-linejoin="round"/>
<path d="M327.215 345.73H529.67" stroke="black" stroke-miterlimit="10" stroke-linecap="round" stroke-linejoin="round"/>
<path d="M365.936 306.879H536.031" stroke="black" stroke-miterlimit="10" stroke-linecap="round" stroke-linejoin="round"/>
<path d="M340.621 332.78H531.675" stroke="black" stroke-miterlimit="10" stroke-linecap="round" stroke-linejoin="round"/>
<path d="M315.139 358.681H527.461" stroke="black" stroke-miterlimit="10" stroke-linecap="round" stroke-linejoin="round"/>
<path d="M379.642 293.928H538.152" stroke="black" stroke-miterlimit="10" stroke-linecap="round" stroke-linejoin="round"/>
<path d="M353.728 319.829H533.778" stroke="black" stroke-miterlimit="10" stroke-linecap="round" stroke-linejoin="round"/>
<path d="M327.215 345.73H529.67" stroke="black" stroke-miterlimit="10" stroke-linecap="round" stroke-linejoin="round"/>
<path d="M365.936 306.879H536.031" stroke="black" stroke-miterlimit="10" stroke-linecap="round" stroke-linejoin="round"/>
<path d="M340.621 332.78H531.675" stroke="black" stroke-miterlimit="10" stroke-linecap="round" stroke-linejoin="round"/>
<path d="M315.139 358.681H527.461" stroke="black" stroke-miterlimit="10" stroke-linecap="round" stroke-linejoin="round"/>
<path d="M817.748 293.928H659.238" stroke="black" stroke-miterlimit="10" stroke-linecap="round" stroke-linejoin="round"/>
<path d="M843.663 319.829H663.613" stroke="black" stroke-miterlimit="10" stroke-linecap="round" stroke-linejoin="round"/>
<path d="M869.538 345.73H667.72" stroke="black" stroke-miterlimit="10" stroke-linecap="round" stroke-linejoin="round"/>
<path d="M830.509 306.879H661.359" stroke="black" stroke-miterlimit="10" stroke-linecap="round" stroke-linejoin="round"/>
<path d="M856.77 332.78H665.715" stroke="black" stroke-miterlimit="10" stroke-linecap="round" stroke-linejoin="round"/>
<path d="M882.251 358.681H669.929" stroke="black" stroke-miterlimit="10" stroke-linecap="round" stroke-linejoin="round"/>
<path d="M562.474 293.928H636.327" stroke="black" stroke-miterlimit="10" stroke-linecap="round" stroke-linejoin="round"/>
<path d="M560.394 306.879H637.388" stroke="black" stroke-miterlimit="10" stroke-linecap="round" stroke-linejoin="round"/>
<path d="M559.391 319.829H637.388" stroke="black" stroke-miterlimit="10" stroke-linecap="round" stroke-linejoin="round"/>
<path d="M558.274 332.78H639.508" stroke="black" stroke-miterlimit="10" stroke-linecap="round" stroke-linejoin="round"/>
<path d="M557.066 358.681H641.629" stroke="black" stroke-miterlimit="10" stroke-linecap="round" stroke-linejoin="round"/>
<path d="M557.214 345.73H640.569" stroke="black" stroke-miterlimit="10" stroke-linecap="round" stroke-linejoin="round"/>
<path d="M590.651 232.163H649.135" stroke="black" stroke-miterlimit="10" stroke-linecap="round" stroke-linejoin="round"/>
<path d="M660.257 232.163H672.919" stroke="black" stroke-miterlimit="10" stroke-linecap="round" stroke-linejoin="round"/>
<path d="M587.828 212.012L596.699 195.01" stroke="black" stroke-miterlimit="10" stroke-linecap="round" stroke-linejoin="round"/>
<path d="M598.892 189.779L601.638 184.154" stroke="black" stroke-miterlimit="10" stroke-linecap="round" stroke-linejoin="round"/>
<path d="M356.898 315.947C356.898 315.947 347.138 303.717 329.633 305.167C313.892 306.472 316.27 304.483 305.99 294.895C295.71 285.307 301.717 278.987 289.885 277.924C283.878 277.384 273.438 262.023 270.011 261.036C266.585 260.049 258.704 268.187 252.536 269.214C246.368 270.241 236.774 267.844 231.634 267.502C226.494 267.159 216.9 276.062 206.963 275.72C197.026 275.377 194.116 230.354 182.162 230.354C163.525 230.354 150.994 306.879 150.994 306.879C150.994 306.879 140.512 281.48 129.152 281.48C110.332 281.48 89.4538 375.366 80.1278 383.88C70.8019 392.394 60.6201 373.936 52.6264 377.054C44.6327 380.172 24.0778 438.328 8.99232 448.629" stroke="black" stroke-miterlimit="10" stroke-linecap="round" stroke-linejoin="round"/>
<path d="M150.994 306.879C150.994 306.879 169.737 360.054 182.162 371.632" stroke="black" stroke-miterlimit="10" stroke-linecap="round" stroke-linejoin="round"/>
<path d="M256.912 267.609C256.912 267.609 227.459 285.781 216.009 287.052C204.558 288.324 192.259 319.129 192.259 319.129" stroke="black" stroke-miterlimit="10" stroke-linecap="round" stroke-linejoin="round"/>
<path d="M169.745 396.177C169.745 396.177 224.658 380.37 248.693 365.156C289.237 339.491 301.717 287.934 333.669 339.255" stroke="black" stroke-miterlimit="10" stroke-linecap="round" stroke-linejoin="round"/>
<path d="M198.796 332.78C198.796 332.78 207.726 310.682 212.954 303.717" stroke="black" stroke-miterlimit="10" stroke-linecap="round" stroke-linejoin="round"/>
<path d="M217.309 297.307C217.309 297.307 218.398 294.932 222.754 294.24" stroke="black" stroke-miterlimit="10" stroke-linecap="round" stroke-linejoin="round"/>
<path d="M140.671 305.957C140.671 305.957 155.465 344.668 161.305 355.367" stroke="black" stroke-miterlimit="10" stroke-linecap="round" stroke-linejoin="round"/>
<path d="M164.586 362.292C164.586 362.292 168.049 368.498 169.744 370.746" stroke="black" stroke-miterlimit="10" stroke-linecap="round" stroke-linejoin="round"/>
</g>
</svg>
