<svg width="6" height="9" viewBox="0 0 6 9" fill="none" xmlns="http://www.w3.org/2000/svg">
<path d="M0.800781 4.875H5.44922C5.57943 4.875 5.6901 4.92057 5.78125 5.01172C5.8724 5.10286 5.91797 5.21354 5.91797 5.34375C5.91797 5.47396 5.8724 5.58464 5.78125 5.67578L3.45703 8C3.36589 8.09115 3.25521 8.13672 3.125 8.13672C2.99479 8.13672 2.88411 8.09115 2.79297 8L0.46875 5.67578C0.377604 5.58464 0.332031 5.47396 0.332031 5.34375C0.332031 5.21354 0.377604 5.10286 0.46875 5.01172C0.559896 4.92057 0.670573 4.875 0.800781 4.875ZM5.78125 2.82422L3.45703 0.5C3.36589 0.408854 3.25521 0.363281 3.125 0.363281C2.99479 0.363281 2.88411 0.408854 2.79297 0.5L0.46875 2.82422C0.377604 2.91536 0.332031 3.02604 0.332031 3.15625C0.332031 3.28646 0.377604 3.39714 0.46875 3.48828C0.559896 3.57943 0.670573 3.625 0.800781 3.625H5.44922C5.57943 3.625 5.6901 3.57943 5.78125 3.48828C5.8724 3.39714 5.91797 3.28646 5.91797 3.15625C5.91797 3.02604 5.8724 2.91536 5.78125 2.82422Z" fill="black"/>
</svg>
