<svg width="25" height="20" viewBox="0 0 25 20" fill="none" xmlns="http://www.w3.org/2000/svg">
<path d="M22.3232 5.125C23.2607 4.42188 24.1045 3.57812 24.7607 2.59375C23.917 2.96875 22.9326 3.25 21.9482 3.34375C22.9795 2.73438 23.7295 1.79688 24.1045 0.625C23.167 1.1875 22.0888 1.60938 21.0107 1.84375C20.0732 0.859375 18.8076 0.296875 17.4013 0.296875C14.6826 0.296875 12.4795 2.5 12.4795 5.21875C12.4795 5.59375 12.5263 5.96875 12.6201 6.34375C8.54196 6.10938 4.88571 4.14062 2.44821 1.1875C2.02633 1.89062 1.79196 2.73438 1.79196 3.67188C1.79196 5.35938 2.63571 6.85938 3.99508 7.75C3.19821 7.70312 2.40133 7.51562 1.74508 7.14062V7.1875C1.74508 9.57812 3.43258 11.5469 5.68258 12.0156C5.30758 12.1094 4.83883 12.2031 4.41696 12.2031C4.08883 12.2031 3.80758 12.1562 3.47946 12.1094C4.08883 14.0781 5.91696 15.4844 8.07321 15.5312C6.38571 16.8438 4.27633 17.6406 1.97946 17.6406C1.55758 17.6406 1.18258 17.5938 0.807581 17.5469C2.96383 18.9531 5.54196 19.75 8.35446 19.75C17.4013 19.75 22.3232 12.2969 22.3232 5.78125C22.3232 5.54688 22.3232 5.35938 22.3232 5.125Z" fill="black"/>
</svg>
