<svg width="93" height="99" viewBox="0 0 93 99" fill="none" xmlns="http://www.w3.org/2000/svg">
<path d="M46.4854 68.5192C59.9763 68.5192 70.9128 65.4005 70.9128 61.5533C70.9128 57.7062 59.9763 54.5874 46.4854 54.5874C32.9946 54.5874 22.0581 57.7062 22.0581 61.5533C22.0581 65.4005 32.9946 68.5192 46.4854 68.5192Z" stroke="black" stroke-miterlimit="10" stroke-linecap="round" stroke-linejoin="round"/>
<path d="M46.463 68.5192C56.3594 68.5192 64.3821 66.5664 64.3821 64.1574C64.3821 61.7484 56.3594 59.7955 46.463 59.7955C36.5665 59.7955 28.5439 61.7484 28.5439 64.1574C28.5439 66.5664 36.5665 68.5192 46.463 68.5192Z" stroke="black" stroke-miterlimit="10" stroke-linecap="round" stroke-linejoin="round"/>
<path d="M46.5 67.0242C51.7336 67.0242 55.9763 65.9914 55.9763 64.7175C55.9763 63.4435 51.7336 62.4107 46.5 62.4107C41.2663 62.4107 37.0236 63.4435 37.0236 64.7175C37.0236 65.9914 41.2663 67.0242 46.5 67.0242Z" stroke="black" stroke-miterlimit="10" stroke-linecap="round" stroke-linejoin="round"/>
<path d="M46.5 67.0242C51.7336 67.0242 55.9763 65.9914 55.9763 64.7175C55.9763 63.4435 51.7336 62.4107 46.5 62.4107C41.2663 62.4107 37.0236 63.4435 37.0236 64.7175C37.0236 65.9914 41.2663 67.0242 46.5 67.0242Z" stroke="black" stroke-miterlimit="10" stroke-linecap="round" stroke-linejoin="round"/>
<path d="M54.6982 63.5641C53.059 64.2529 50.0055 64.7175 46.5 64.7175C42.9945 64.7175 39.9409 64.2529 38.3017 63.5641C37.4937 63.9037 37.0236 64.2968 37.0236 64.7175C37.0236 65.9915 41.2663 67.0242 46.5 67.0242C51.7336 67.0242 55.9764 65.9915 55.9764 64.7175C55.9764 64.2968 55.5063 63.9037 54.6982 63.5641Z" stroke="black" stroke-miterlimit="10" stroke-linecap="round" stroke-linejoin="round"/>
<path d="M46.4854 97.9381C47.2866 97.9381 47.936 97.2887 47.936 96.4876C47.936 95.6865 47.2866 95.037 46.4854 95.037C45.6843 95.037 45.0349 95.6865 45.0349 96.4876C45.0349 97.2887 45.6843 97.9381 46.4854 97.9381Z" stroke="black" stroke-miterlimit="10" stroke-linecap="round" stroke-linejoin="round"/>
<path d="M32.6806 40.2505V55.8059" stroke="black" stroke-miterlimit="10" stroke-linecap="round" stroke-linejoin="round"/>
<path d="M46.4854 40.2505V54.5875" stroke="black" stroke-miterlimit="10" stroke-linecap="round" stroke-linejoin="round"/>
<path d="M60.3146 40.2505V55.811" stroke="black" stroke-miterlimit="10" stroke-linecap="round" stroke-linejoin="round"/>
<path d="M46.5001 62.4107V95.037" stroke="black" stroke-miterlimit="10" stroke-linecap="round" stroke-linejoin="round"/>
<path d="M30.0412 97.9381C30.8423 97.9381 31.4917 97.2887 31.4917 96.4876C31.4917 95.6865 30.8423 95.037 30.0412 95.037C29.24 95.037 28.5906 95.6865 28.5906 96.4876C28.5906 97.2887 29.24 97.9381 30.0412 97.9381Z" stroke="black" stroke-miterlimit="10" stroke-linecap="round" stroke-linejoin="round"/>
<path d="M41.8016 62.7139L30.0558 95.037" stroke="black" stroke-miterlimit="10" stroke-linecap="round" stroke-linejoin="round"/>
<path d="M62.9297 97.9381C63.7308 97.9381 64.3802 97.2887 64.3802 96.4876C64.3802 95.6865 63.7308 95.037 62.9297 95.037C62.1285 95.037 61.4791 95.6865 61.4791 96.4876C61.4791 97.2887 62.1285 97.9381 62.9297 97.9381Z" stroke="black" stroke-miterlimit="10" stroke-linecap="round" stroke-linejoin="round"/>
<path d="M51.1984 62.7139L62.9442 95.037" stroke="black" stroke-miterlimit="10" stroke-linecap="round" stroke-linejoin="round"/>
<path d="M23.3438 14.4597C26.8722 6.5945 35.9093 1 46.501 1C57.0906 1 66.1263 6.59228 69.6562 14.4551" stroke="black" stroke-miterlimit="10" stroke-linecap="round" stroke-linejoin="round"/>
<path d="M28.0442 42.5159C14.3374 40.101 4.91544 35.3464 4.91544 31.3895C4.91544 25.8272 23.5335 21.3181 46.5 21.3181C69.4665 21.3181 88.0846 25.8272 88.0846 31.3895C88.0846 35.3479 78.6555 40.1046 64.9403 42.5186" stroke="black" stroke-miterlimit="10" stroke-linecap="round" stroke-linejoin="round"/>
<path d="M25.3706 10.9989C31.3202 9.10964 38.6134 7.99741 46.4933 7.99741C54.3791 7.99741 61.6774 9.11131 67.6294 11.0032" stroke="black" stroke-miterlimit="10" stroke-linecap="round" stroke-linejoin="round"/>
<path d="M8.16965 35.7111C3.63152 33.3701 1 30.794 1 28.456C1 21.9512 21.371 16.6779 46.5 16.6779C71.629 16.6779 92 21.9512 92 28.456C92 30.794 89.3685 33.3701 84.8303 35.7111" stroke="black" stroke-miterlimit="10" stroke-linecap="round" stroke-linejoin="round"/>
<path d="M46.5 45.2668C59.6607 45.2668 70.3296 41.9103 70.3296 37.7697C70.3296 33.6292 59.6607 30.2726 46.5 30.2726C33.3393 30.2726 22.6704 33.6292 22.6704 37.7697C22.6704 41.9103 33.3393 45.2668 46.5 45.2668Z" stroke="black" stroke-miterlimit="10" stroke-linecap="round" stroke-linejoin="round"/>
<path d="M46.5 43.3092C54.1323 43.3092 60.3194 41.9081 60.3194 40.1797C60.3194 38.4514 54.1323 37.0503 46.5 37.0503C38.8678 37.0503 32.6806 38.4514 32.6806 40.1797C32.6806 41.9081 38.8678 43.3092 46.5 43.3092Z" stroke="black" stroke-miterlimit="10" stroke-linecap="round" stroke-linejoin="round"/>
<path d="M58.469 38.6145C56.0793 39.5497 51.6142 40.1788 46.5 40.1788C41.3858 40.1788 36.9207 39.5497 34.531 38.6145C33.3544 39.075 32.6806 39.6095 32.6806 40.1797C32.6806 41.908 38.8678 43.3091 46.5 43.3091C54.1323 43.3091 60.3194 41.908 60.3194 40.1797C60.3194 39.6095 59.6456 39.075 58.469 38.6145Z" stroke="black" stroke-miterlimit="10" stroke-linecap="round" stroke-linejoin="round"/>
<path d="M1.3851 26.918C4.91998 20.1581 18.8564 12.197 46.5 12.197C74.0049 12.197 87.9885 20.0248 91.5409 26.7775" stroke="black" stroke-miterlimit="10" stroke-linecap="round" stroke-linejoin="round"/>
<path d="M5.16891 30.2726C5.16891 30.2726 14.7461 35.2871 23.3098 36.0379" stroke="black" stroke-miterlimit="10" stroke-linecap="round" stroke-linejoin="round"/>
<path d="M18.4877 23.9459C18.4877 23.9459 22.8802 28.6309 32.6806 31.6614" stroke="black" stroke-miterlimit="10" stroke-linecap="round" stroke-linejoin="round"/>
<path d="M48.7255 21.3323C48.7255 21.3323 48.3538 26.9672 47.3075 30.2726" stroke="black" stroke-miterlimit="10" stroke-linecap="round" stroke-linejoin="round"/>
<path d="M74.1261 23.8616C74.1261 23.8616 71.1843 28.1519 60.3195 31.6614" stroke="black" stroke-miterlimit="10" stroke-linecap="round" stroke-linejoin="round"/>
<path d="M87.8311 30.2726C87.8311 30.2726 82.1706 34.0891 69.6769 36.0203" stroke="black" stroke-miterlimit="10" stroke-linecap="round" stroke-linejoin="round"/>
<path d="M36.9867 27.4062C39.2747 27.4062 41.1296 26.7959 41.1296 26.0432C41.1296 25.2904 39.2747 24.6801 36.9867 24.6801C34.6986 24.6801 32.8437 25.2904 32.8437 26.0432C32.8437 26.7959 34.6986 27.4062 36.9867 27.4062Z" stroke="black" stroke-miterlimit="10" stroke-linecap="round" stroke-linejoin="round"/>
<path d="M58.9979 27.5575C61.286 27.5575 63.1409 26.9473 63.1409 26.1945C63.1409 25.4417 61.286 24.8314 58.9979 24.8314C56.7098 24.8314 54.8549 25.4417 54.8549 26.1945C54.8549 26.9473 56.7098 27.5575 58.9979 27.5575Z" stroke="black" stroke-miterlimit="10" stroke-linecap="round" stroke-linejoin="round"/>
<path d="M77.6457 31.0508C79.4661 30.6877 80.845 29.9078 80.7255 29.3088C80.6061 28.7099 79.0335 28.5188 77.2131 28.8819C75.3926 29.2451 74.0138 30.025 74.1332 30.6239C74.2527 31.2228 75.8253 31.414 77.6457 31.0508Z" stroke="black" stroke-miterlimit="10" stroke-linecap="round" stroke-linejoin="round"/>
<path d="M18.4805 30.6239C18.6 30.025 17.2211 29.245 15.4007 28.8819C13.5803 28.5187 12.0077 28.7099 11.8882 29.3088C11.7688 29.9077 13.1476 30.6876 14.968 31.0508C16.7885 31.4139 18.361 31.2228 18.4805 30.6239Z" stroke="black" stroke-miterlimit="10" stroke-linecap="round" stroke-linejoin="round"/>
<path d="M20.6579 37.5546C20.7496 37.0953 19.692 36.4971 18.2958 36.2186C16.8995 35.94 15.6934 36.0866 15.6017 36.546C15.5101 37.0054 16.5677 37.6035 17.9639 37.8821C19.3601 38.1606 20.5663 38.014 20.6579 37.5546Z" stroke="black" stroke-miterlimit="10" stroke-linecap="round" stroke-linejoin="round"/>
<path d="M74.6734 37.8821C76.0696 37.6035 77.1272 37.0053 77.0356 36.546C76.9439 36.0866 75.7378 35.94 74.3415 36.2185C72.9453 36.4971 71.8877 37.0953 71.9793 37.5546C72.071 38.014 73.2771 38.1606 74.6734 37.8821Z" stroke="black" stroke-miterlimit="10" stroke-linecap="round" stroke-linejoin="round"/>
<path d="M39.4745 20.4685C40.2205 20.4685 40.8253 19.8638 40.8253 19.1178C40.8253 18.3718 40.2205 17.767 39.4745 17.767C38.7286 17.767 38.1238 18.3718 38.1238 19.1178C38.1238 19.8638 38.7286 20.4685 39.4745 20.4685Z" stroke="black" stroke-miterlimit="10" stroke-linecap="round" stroke-linejoin="round"/>
<path d="M30.458 21.063C31.204 21.063 31.8087 20.4583 31.8087 19.7123C31.8087 18.9663 31.204 18.3616 30.458 18.3616C29.712 18.3616 29.1072 18.9663 29.1072 19.7123C29.1072 20.4583 29.712 21.063 30.458 21.063Z" stroke="black" stroke-miterlimit="10" stroke-linecap="round" stroke-linejoin="round"/>
<path d="M22.4819 22.1322C23.1791 22.1322 23.7443 21.5275 23.7443 20.7815C23.7443 20.0355 23.1791 19.4307 22.4819 19.4307C21.7847 19.4307 21.2196 20.0355 21.2196 20.7815C21.2196 21.5275 21.7847 22.1322 22.4819 22.1322Z" stroke="black" stroke-miterlimit="10" stroke-linecap="round" stroke-linejoin="round"/>
<path d="M15.5115 23.6209C16.1442 23.5348 16.5757 22.8658 16.4751 22.1266C16.3745 21.3875 15.7801 20.858 15.1473 20.9441C14.5146 21.0302 14.0831 21.6992 14.1837 22.4384C14.2843 23.1775 14.8787 23.707 15.5115 23.6209Z" stroke="black" stroke-miterlimit="10" stroke-linecap="round" stroke-linejoin="round"/>
<path d="M78.7266 22.6042C78.904 21.8796 78.545 21.1691 77.9247 21.0172C77.3045 20.8653 76.6578 21.3296 76.4804 22.0541C76.303 22.7787 76.6619 23.4892 77.2822 23.6411C77.9025 23.793 78.5491 23.3287 78.7266 22.6042Z" stroke="black" stroke-miterlimit="10" stroke-linecap="round" stroke-linejoin="round"/>
<path d="M78.7266 22.6042C78.904 21.8796 78.545 21.1691 77.9247 21.0172C77.3045 20.8653 76.6578 21.3296 76.4804 22.0541C76.303 22.7787 76.6619 23.4892 77.2822 23.6411C77.9025 23.793 78.5491 23.3287 78.7266 22.6042Z" stroke="black" stroke-miterlimit="10" stroke-linecap="round" stroke-linejoin="round"/>
<path d="M9.48006 25.634C10.0162 25.4117 10.2192 24.6728 9.93343 23.9837C9.64767 23.2946 8.9814 22.9163 8.44526 23.1386C7.90911 23.3609 7.70614 24.0998 7.99189 24.7889C8.27765 25.4779 8.94392 25.8563 9.48006 25.634Z" stroke="black" stroke-miterlimit="10" stroke-linecap="round" stroke-linejoin="round"/>
<path d="M5.46503 27.9547C5.81963 27.6001 5.67948 26.885 5.15198 26.3575C4.62449 25.83 3.90941 25.6898 3.55481 26.0444C3.20021 26.399 3.34037 27.1141 3.86786 27.6416C4.39536 28.1691 5.11044 28.3093 5.46503 27.9547Z" stroke="black" stroke-miterlimit="10" stroke-linecap="round" stroke-linejoin="round"/>
<path d="M4.21137 30.8748C4.51752 30.538 4.31817 29.8581 3.76611 29.3564C3.21405 28.8547 2.51833 28.721 2.21217 29.0579C1.90602 29.3948 2.10537 30.0746 2.65743 30.5763C3.2095 31.0781 3.90522 31.2117 4.21137 30.8748Z" stroke="black" stroke-miterlimit="10" stroke-linecap="round" stroke-linejoin="round"/>
<path d="M84.974 24.7526C85.2597 24.0635 85.0567 23.3246 84.5206 23.1023C83.9845 22.88 83.3182 23.2584 83.0324 23.9475C82.7467 24.6365 82.9497 25.3754 83.4858 25.5977C84.0219 25.82 84.6882 25.4417 84.974 24.7526Z" stroke="black" stroke-miterlimit="10" stroke-linecap="round" stroke-linejoin="round"/>
<path d="M59.5864 58.433C59.8722 57.7439 59.6692 57.0051 59.1331 56.7827C58.5969 56.5604 57.9307 56.9388 57.6449 57.6279C57.3592 58.317 57.5621 59.0558 58.0983 59.2781C58.6344 59.5005 59.3007 59.1221 59.5864 58.433Z" stroke="black" stroke-miterlimit="10" stroke-linecap="round" stroke-linejoin="round"/>
<path d="M88.9609 27.5601C89.4884 27.0326 89.6285 26.3175 89.2739 25.9629C88.9193 25.6083 88.2042 25.7485 87.6767 26.2759C87.1492 26.8034 87.0091 27.5185 87.3637 27.8731C87.7183 28.2277 88.4334 28.0876 88.9609 27.5601Z" stroke="black" stroke-miterlimit="10" stroke-linecap="round" stroke-linejoin="round"/>
<path d="M65.0241 60.4375C65.5516 59.9101 65.6918 59.195 65.3372 58.8404C64.9826 58.4858 64.2675 58.6259 63.74 59.1534C63.2125 59.6809 63.0724 60.396 63.427 60.7506C63.7816 61.1052 64.4966 60.965 65.0241 60.4375Z" stroke="black" stroke-miterlimit="10" stroke-linecap="round" stroke-linejoin="round"/>
<path d="M90.3811 30.8062C90.9332 30.3044 91.1325 29.6246 90.8264 29.2878C90.5202 28.9509 89.8245 29.0845 89.2725 29.5863C88.7204 30.088 88.521 30.7678 88.8272 31.1047C89.1333 31.4415 89.8291 31.3079 90.3811 30.8062Z" stroke="black" stroke-miterlimit="10" stroke-linecap="round" stroke-linejoin="round"/>
<path d="M67.7771 63.3239C68.3291 62.8221 68.5285 62.1423 68.2223 61.8054C67.9162 61.4686 67.2205 61.6022 66.6684 62.1039C66.1163 62.6057 65.917 63.2855 66.2231 63.6223C66.5293 63.9592 67.225 63.8256 67.7771 63.3239Z" stroke="black" stroke-miterlimit="10" stroke-linecap="round" stroke-linejoin="round"/>
<path d="M34.6675 59.2781C35.2037 59.0558 35.4066 58.3169 35.1209 57.6278C34.8351 56.9388 34.1688 56.5604 33.6327 56.7827C33.0966 57.005 32.8936 57.7439 33.1793 58.433C33.4651 59.1221 34.1314 59.5004 34.6675 59.2781Z" stroke="black" stroke-miterlimit="10" stroke-linecap="round" stroke-linejoin="round"/>
<path d="M29.3388 60.7506C29.6934 60.396 29.5533 59.6809 29.0258 59.1534C28.4983 58.626 27.7832 58.4858 27.4286 58.8404C27.074 59.195 27.2142 59.9101 27.7417 60.4376C28.2692 60.965 28.9842 61.1052 29.3388 60.7506Z" stroke="black" stroke-miterlimit="10" stroke-linecap="round" stroke-linejoin="round"/>
<path d="M26.5427 63.6224C26.8489 63.2855 26.6495 62.6057 26.0975 62.104C25.5454 61.6022 24.8497 61.4686 24.5435 61.8055C24.2374 62.1423 24.4367 62.8221 24.9888 63.3239C25.5409 63.8256 26.2366 63.9592 26.5427 63.6224Z" stroke="black" stroke-miterlimit="10" stroke-linecap="round" stroke-linejoin="round"/>
<path d="M50.3766 20.4685C51.1225 20.4685 51.7273 19.8638 51.7273 19.1178C51.7273 18.3718 51.1225 17.767 50.3766 17.767C49.6306 17.767 49.0258 18.3718 49.0258 19.1178C49.0258 19.8638 49.6306 20.4685 50.3766 20.4685Z" stroke="black" stroke-miterlimit="10" stroke-linecap="round" stroke-linejoin="round"/>
<path d="M61.1044 21.1514C61.8504 21.1514 62.4551 20.5467 62.4551 19.8007C62.4551 19.0547 61.8504 18.4499 61.1044 18.4499C60.3584 18.4499 59.7536 19.0547 59.7536 19.8007C59.7536 20.5467 60.3584 21.1514 61.1044 21.1514Z" stroke="black" stroke-miterlimit="10" stroke-linecap="round" stroke-linejoin="round"/>
<path d="M69.8802 22.0839C70.6262 22.0839 71.2309 21.4792 71.2309 20.7332C71.2309 19.9872 70.6262 19.3825 69.8802 19.3825C69.1342 19.3825 68.5294 19.9872 68.5294 20.7332C68.5294 21.4792 69.1342 22.0839 69.8802 22.0839Z" stroke="black" stroke-miterlimit="10" stroke-linecap="round" stroke-linejoin="round"/>
<path d="M46.5001 37.0514V43.3091" stroke="black" stroke-miterlimit="10" stroke-linecap="round" stroke-linejoin="round"/>
<path d="M43.919 40.1788V43.2412" stroke="black" stroke-miterlimit="10" stroke-linecap="round" stroke-linejoin="round"/>
<path d="M41.6296 40.0001V43.1306" stroke="black" stroke-miterlimit="10" stroke-linecap="round" stroke-linejoin="round"/>
<path d="M39.4255 37.491V54.8833" stroke="black" stroke-miterlimit="10" stroke-linecap="round" stroke-linejoin="round"/>
<path d="M37.4529 39.4768V42.5506" stroke="black" stroke-miterlimit="10" stroke-linecap="round" stroke-linejoin="round"/>
<path d="M35.871 39.0862V42.1343" stroke="black" stroke-miterlimit="10" stroke-linecap="round" stroke-linejoin="round"/>
<path d="M34.5773 41.7293V38.7013" stroke="black" stroke-miterlimit="10" stroke-linecap="round" stroke-linejoin="round"/>
<path d="M33.5398 41.1836V39.1876" stroke="black" stroke-miterlimit="10" stroke-linecap="round" stroke-linejoin="round"/>
<path d="M49.1146 40.1215V43.2412" stroke="black" stroke-miterlimit="10" stroke-linecap="round" stroke-linejoin="round"/>
<path d="M51.4715 40.0024V43.056" stroke="black" stroke-miterlimit="10" stroke-linecap="round" stroke-linejoin="round"/>
<path d="M53.6894 37.5498V54.8956" stroke="black" stroke-miterlimit="10" stroke-linecap="round" stroke-linejoin="round"/>
<path d="M55.6052 39.4484V42.4912" stroke="black" stroke-miterlimit="10" stroke-linecap="round" stroke-linejoin="round"/>
<path d="M57.2752 39.0675V42.0955" stroke="black" stroke-miterlimit="10" stroke-linecap="round" stroke-linejoin="round"/>
<path d="M58.6157 41.6863V38.682" stroke="black" stroke-miterlimit="10" stroke-linecap="round" stroke-linejoin="round"/>
<path d="M59.6094 41.1724V39.1873" stroke="black" stroke-miterlimit="10" stroke-linecap="round" stroke-linejoin="round"/>
<path d="M41.9237 58.5254C42.6697 58.5254 43.2744 57.9207 43.2744 57.1747C43.2744 56.4287 42.6697 55.8239 41.9237 55.8239C41.1777 55.8239 40.573 56.4287 40.573 57.1747C40.573 57.9207 41.1777 58.5254 41.9237 58.5254Z" stroke="black" stroke-miterlimit="10" stroke-linecap="round" stroke-linejoin="round"/>
<path d="M51.0703 58.5254C51.8163 58.5254 52.421 57.9207 52.421 57.1747C52.421 56.4287 51.8163 55.8239 51.0703 55.8239C50.3243 55.8239 49.7195 56.4287 49.7195 57.1747C49.7195 57.9207 50.3243 58.5254 51.0703 58.5254Z" stroke="black" stroke-miterlimit="10" stroke-linecap="round" stroke-linejoin="round"/>
</svg>
