<svg width="572" height="364" viewBox="0 0 572 364" fill="none" xmlns="http://www.w3.org/2000/svg">
<g opacity="0.1">
<path d="M419.265 385.429C396.537 379.368 374.446 379.617 343.72 386.601C293.642 397.985 254.059 383.086 222.42 366.077C190.781 349.069 126.857 384.206 94.8943 383.407C62.9321 382.609 51.5605 362.323 16.4944 366.077C-18.5717 369.831 -146 410.559 -146 410.559" stroke="black" stroke-miterlimit="10" stroke-linecap="round" stroke-linejoin="round"/>
<path d="M204.915 361.551C204.915 361.551 193.71 362.755 193.804 371.177C193.897 379.443 207.256 383.715 222.777 385.913C238.297 388.11 262.225 391.095 263.001 399.879C263.777 408.663 211.101 422.376 211.101 422.376" stroke="black" stroke-miterlimit="10" stroke-linecap="round" stroke-linejoin="round"/>
<path d="M-145.705 138.07C-145.705 138.07 -139.824 140.147 -139.331 130.283C-138.837 120.419 -138.344 100.692 -136.863 97.2392C-135.383 93.7869 -133.656 93.5403 -133.656 93.5403V84.1697C-133.656 84.1697 -125.019 81.7037 -122.552 82.4435C-122.552 82.4435 -123.292 65.9216 -121.565 64.442C-119.838 62.9624 -111.942 65.1818 -111.942 62.2227C-111.942 59.2635 -113.422 53.3452 -107.994 52.3588C-102.566 51.3724 -91.2153 48.9065 -88.9946 52.3588C-86.7739 55.8112 -89.4881 63.9488 -88.9946 78.0048C-88.5011 92.0607 -88.0076 109.569 -85.2934 110.309C-82.5793 111.049 -74.6834 110.802 -74.4367 104.884C-74.1899 98.9654 -77.6443 83.9231 -75.6704 77.7582C-73.6964 71.5933 -70.242 64.9352 -70.9822 52.852C-71.7225 40.7688 -72.9562 34.8505 -69.7485 30.6584C-66.5408 26.4663 -63.8266 25.7265 -63.8266 25.7265C-63.8266 25.7265 -66.5408 4.51928 -59.6319 2.54651C-52.7231 0.573748 -34.7107 -0.659231 -31.0095 6.24545C-27.3083 13.1501 -29.0355 31.6448 -25.0876 34.8505C-21.1397 38.0563 -12.7503 37.8097 -11.5166 43.9746C-10.2829 50.1395 -3.86748 128.31 -0.906523 129.543C2.05441 130.776 5.50886 129.05 6.24908 131.763C6.98932 134.475 9.21003 161.601 9.21003 161.601C9.21003 161.601 25.0017 160.614 31.4171 152.23C37.8325 143.846 41.0402 128.31 50.1698 126.091C59.2993 123.872 73.6106 124.118 73.6106 124.118C73.6106 124.118 82.9869 200.316 85.9479 200.316C88.9088 200.316 89.1555 178.123 91.1295 173.437C93.1035 168.752 97.5449 170.232 99.7656 162.834C101.986 155.436 101.74 133.735 106.921 132.009C112.103 130.283 112.843 134.968 115.064 136.941C117.285 138.914 120.492 135.708 122.713 138.914C124.934 142.12 124.193 184.534 127.648 187C131.102 189.466 137.024 189.466 137.024 204.015C137.024 218.564 136.284 245.69 142.453 244.457C148.621 243.224 150.102 238.292 151.829 225.469C153.556 212.646 157.011 213.386 162.686 212.893C168.361 212.399 169.348 215.605 169.348 219.551C169.348 223.496 167.374 228.921 170.581 229.414C173.789 229.908 177.527 230.364 178.758 235.283C179.988 240.202 186.889 311.195 186.889 311.195" stroke="black" stroke-miterlimit="10" stroke-linecap="round" stroke-linejoin="round"/>
<path d="M-145.708 261.881C-145.708 261.881 -116.269 249.51 -88.4893 258.699C-66.461 265.986 44.8204 328.296 67.9009 333.069C90.9814 337.841 164.859 307.587 186.885 311.195C196.019 312.691 236.229 343.011 246.178 342.613C256.126 342.216 327.357 315.172 347.254 322.728C354.475 325.471 381.817 341.59 416.819 362.897" stroke="black" stroke-miterlimit="10" stroke-linecap="round" stroke-linejoin="round"/>
<path d="M343.226 321.927C343.226 321.927 311.679 326.729 318.583 341.324C324.091 352.965 358.791 337.994 378.643 359" stroke="black" stroke-miterlimit="10" stroke-linecap="round" stroke-linejoin="round"/>
<path d="M425.861 425.929C425.861 425.929 424.492 416.909 424.165 413.423C424.165 413.423 412.461 416.462 407.119 408.399C401.777 400.337 402.988 389.206 408.684 389.562C413.707 389.876 413.384 394.683 415.231 401.656C417.078 408.629 423.401 409.173 423.401 409.173C423.401 409.173 413.393 362.848 418.316 343.588C423.24 324.328 436.04 329.108 438.994 336.699C441.948 344.291 441.104 385.06 441.104 385.06C441.104 385.06 450.389 385.622 450.811 377.046C451.233 368.471 446.591 355.256 454.89 355.256C463.189 355.256 466.003 366.643 460.939 378.733C455.875 390.824 441.245 390.402 441.245 390.402C441.245 390.402 437.588 418.435 435.759 426.279" stroke="black" stroke-miterlimit="10" stroke-linecap="round" stroke-linejoin="round"/>
<path d="M427.345 339.09C427.345 339.09 421.322 358.363 427.345 399.406" stroke="black" stroke-miterlimit="10" stroke-linecap="round" stroke-linejoin="round"/>
<path d="M434.777 344.917C434.777 344.917 436.449 391.1 433.582 415.146" stroke="black" stroke-miterlimit="10" stroke-linecap="round" stroke-linejoin="round"/>
<path d="M456.414 361.811C456.414 361.811 458.547 370.806 456.414 378.169" stroke="black" stroke-miterlimit="10" stroke-linecap="round" stroke-linejoin="round"/>
<path d="M414.795 337.529L420.183 338.124L416.908 333.948" stroke="black" stroke-miterlimit="10" stroke-linecap="round" stroke-linejoin="round"/>
<path d="M415.622 342.12L420.183 338.124" stroke="black" stroke-miterlimit="10" stroke-linecap="round" stroke-linejoin="round"/>
<path d="M444.931 334.866L439.807 340.122L446.86 339.09" stroke="black" stroke-miterlimit="10" stroke-linecap="round" stroke-linejoin="round"/>
<path d="M445.298 343.773L439.807 340.122" stroke="black" stroke-miterlimit="10" stroke-linecap="round" stroke-linejoin="round"/>
<path d="M453.016 349.65L455.857 355.319L457.361 348.915" stroke="black" stroke-miterlimit="10" stroke-linecap="round" stroke-linejoin="round"/>
<path d="M461.102 352.117L455.857 355.318" stroke="black" stroke-miterlimit="10" stroke-linecap="round" stroke-linejoin="round"/>
<path d="M445.298 366.053L441.172 364.846L444.434 361.412" stroke="black" stroke-miterlimit="10" stroke-linecap="round" stroke-linejoin="round"/>
<path d="M9.20666 161.601C9.20666 161.601 -1.82681 161.573 -12.8159 161.57C-22.1041 161.567 -29.5822 169.166 -29.4298 178.447C-29.2406 189.967 -29.4536 203.821 -31.3794 207.67C-34.8367 214.581 -80.934 214.869 -92.1702 211.989C-103.406 209.11 -101.39 235.491 -101.39 235.491" stroke="black" stroke-miterlimit="10" stroke-linecap="round" stroke-linejoin="round"/>
<path d="M30.6831 163.413C30.6831 163.413 21.3102 169.576 4.04456 168.836" stroke="black" stroke-miterlimit="10" stroke-linecap="round" stroke-linejoin="round"/>
<path d="M85.9443 200.316L95.8368 266.457" stroke="black" stroke-miterlimit="10" stroke-linecap="round" stroke-linejoin="round"/>
<path d="M93.447 206.059L98.3533 238.748" stroke="black" stroke-miterlimit="10" stroke-linecap="round" stroke-linejoin="round"/>
<path d="M99.9738 245.714L101.718 255.894" stroke="black" stroke-miterlimit="10" stroke-linecap="round" stroke-linejoin="round"/>
<path d="M-6.43849 275.613C-6.43849 275.613 -7.09161 259.058 0.36595 255.894C7.8235 252.73 31.2615 258.526 33.3923 255.894C35.523 253.263 33.9249 237.417 36.5883 235.491C39.2518 233.565 70.1473 232.626 72.2781 235.491C74.4088 238.357 77.8792 279.76 82.6734 279.635C87.4675 279.509 130.34 276.931 135.667 282.399C140.994 287.866 143.125 301.707 149.517 301.707C155.909 301.707 162.89 313.624 162.89 313.624" stroke="black" stroke-miterlimit="10" stroke-linecap="round" stroke-linejoin="round"/>
<path d="M82.6737 279.635L48.0656 282.352" stroke="black" stroke-miterlimit="10" stroke-linecap="round" stroke-linejoin="round"/>
<path d="M66.0725 243.3C66.0725 243.3 68.2758 257.528 69.1232 262.101" stroke="black" stroke-miterlimit="10" stroke-linecap="round" stroke-linejoin="round"/>
<path d="M69.9641 267.684L71.0873 273.297" stroke="black" stroke-miterlimit="10" stroke-linecap="round" stroke-linejoin="round"/>
<path d="M89.4458 382.92C89.4458 382.92 78.3229 376.428 74.1452 371.537C74.1452 371.537 87.3944 376.07 90.0204 376.011C90.0204 376.011 84.4103 368.794 82.0828 363.068C82.0828 363.068 89.4235 370.225 91.6914 371.776C91.6914 371.776 91.6914 367.72 92.4076 361.517C92.4076 361.517 94.6755 370.941 95.7497 372.253C95.7497 372.253 98.7338 357.7 103.508 352.57C103.508 352.57 100.047 367.124 100.882 373.327C100.882 373.327 106.85 367.124 109.357 366.527C109.357 366.527 103.986 374.52 103.508 376.428C103.508 376.428 110.179 374.146 116.757 374.462C116.757 374.462 106.466 379.928 103.84 382.672" stroke="black" stroke-miterlimit="10" stroke-linecap="round" stroke-linejoin="round"/>
<path d="M292.077 329.936C292.077 329.936 285.042 306.894 282.727 292.317C282.727 292.317 268.141 293.706 261.658 287.227C255.175 280.748 254.018 265.94 254.018 265.94C254.018 265.94 245.22 266.402 245.683 260.618C246.146 254.833 253.555 258.073 253.555 258.073C253.555 258.073 251.788 248.067 258.88 246.966C265.348 245.962 268.845 249.511 268.608 260.849C268.372 272.187 268.141 281.674 281.337 281.905C281.337 281.905 273.697 231.001 280.874 218.969C288.052 206.937 300.785 221.514 300.554 240.256C300.554 240.256 308.193 242.997 307.268 234.009C306.377 225.353 308.663 222.512 312.804 222.574C317.227 222.64 320.467 227.577 318.112 237.614C315.496 248.765 301.248 248.123 301.248 248.123L300.785 293.937C300.785 293.937 311.571 299.387 312.593 290.003C313.69 279.937 317.7 277.232 323.243 278.897C331.718 281.443 327.112 301.146 315.834 304.581C306.123 307.539 300.785 303.424 300.785 303.424V327.313" stroke="black" stroke-miterlimit="10" stroke-linecap="round" stroke-linejoin="round"/>
<path d="M285.971 225.295C285.971 225.295 284.037 278.139 294.187 317.299" stroke="black" stroke-miterlimit="10" stroke-linecap="round" stroke-linejoin="round"/>
<path d="M294.187 233.247C294.187 233.247 296.304 259.783 295.858 285.935" stroke="black" stroke-miterlimit="10" stroke-linecap="round" stroke-linejoin="round"/>
<path d="M279.146 287.193C279.146 287.193 258.798 288.17 259.972 256.689" stroke="black" stroke-miterlimit="10" stroke-linecap="round" stroke-linejoin="round"/>
<path d="M312.799 227.749C312.799 227.749 315.032 237.246 309.389 241.566" stroke="black" stroke-miterlimit="10" stroke-linecap="round" stroke-linejoin="round"/>
<path d="M321.636 285.007C321.636 285.007 319.955 299.168 308.548 300.608" stroke="black" stroke-miterlimit="10" stroke-linecap="round" stroke-linejoin="round"/>
<path d="M279.146 212.504L280.874 218.969L275.528 216.197" stroke="black" stroke-miterlimit="10" stroke-linecap="round" stroke-linejoin="round"/>
<path d="M275.528 221.301L280.874 218.969" stroke="black" stroke-miterlimit="10" stroke-linecap="round" stroke-linejoin="round"/>
<path d="M300.738 220.135L298.456 225.296H302.26" stroke="black" stroke-miterlimit="10" stroke-linecap="round" stroke-linejoin="round"/>
<path d="M321.927 221.952L318.335 227.273L323.449 226.296" stroke="black" stroke-miterlimit="10" stroke-linecap="round" stroke-linejoin="round"/>
<path d="M323.449 230.423L318.335 227.273" stroke="black" stroke-miterlimit="10" stroke-linecap="round" stroke-linejoin="round"/>
<path d="M260.859 241.566L262.995 247.076L268.791 244.321" stroke="black" stroke-miterlimit="10" stroke-linecap="round" stroke-linejoin="round"/>
<path d="M264.825 240.957L262.995 247.075" stroke="black" stroke-miterlimit="10" stroke-linecap="round" stroke-linejoin="round"/>
<path d="M241.626 255.291L245.683 260.618L240.43 261.156" stroke="black" stroke-miterlimit="10" stroke-linecap="round" stroke-linejoin="round"/>
<path d="M252.851 281.906L258.508 282.78L254.221 285.935" stroke="black" stroke-miterlimit="10" stroke-linecap="round" stroke-linejoin="round"/>
<path d="M257.189 288.865L258.508 282.78" stroke="black" stroke-miterlimit="10" stroke-linecap="round" stroke-linejoin="round"/>
<path d="M311.312 276.219L317.052 279.417L315.092 273.592" stroke="black" stroke-miterlimit="10" stroke-linecap="round" stroke-linejoin="round"/>
<path d="M319.439 273.592L317.052 279.417" stroke="black" stroke-miterlimit="10" stroke-linecap="round" stroke-linejoin="round"/>
<path d="M305.177 259.591L301.104 262.399L305.177 263.176" stroke="black" stroke-miterlimit="10" stroke-linecap="round" stroke-linejoin="round"/>
</g>
</svg>
